<?xml version="1.0" encoding="UTF-8"?>
<svg width="28px" height="23px" viewBox="0 0 28 23" version="1.1" xmlns="http://www.w3.org/2000/svg" xmlns:xlink="http://www.w3.org/1999/xlink">
    <!-- Generator: Sketch 58 (84663) - https://sketch.com -->
    <title>Group 25</title>
    <desc>Created with Sketch.</desc>
    <defs>
        <polygon id="path-1" points="0.7744 0.0163 2.7584 0.0163 2.7584 2 0.7744 2"></polygon>
        <polygon id="path-3" points="0.5224 0.5983 2.506 0.5983 2.506 2.5823 0.5224 2.5823"></polygon>
    </defs>
    <g id="Page-1" stroke="none" stroke-width="1" fill="none" fill-rule="evenodd">
        <g id="Group-25" transform="translate(0.000000, -1.000000)">
            <path d="M0.291,1.2909 C0.476,1.1059 0.74,0.9999 1.005,0.9999 C1.243,0.9999 1.508,1.1059 1.693,1.2909 C1.878,1.4759 1.984,1.7409 1.984,2.0049 C1.984,2.2429 1.878,2.5079 1.693,2.6929 C1.508,2.8779 1.243,2.9839 1.005,2.9839 C0.74,2.9839 0.476,2.8779 0.291,2.6929 C0.106,2.5079 0,2.2429 0,2.0049 C0,1.7409 0.106,1.4759 0.291,1.2909" id="Fill-1" fill="#FFFFFF"></path>
            <path d="M4.3904,5.5491 C4.6814,6.0251 4.5224,6.6331 4.0734,6.9241 C3.9144,7.0301 3.7294,7.0831 3.5444,7.0831 C3.2264,7.0831 2.8824,6.8981 2.6974,6.6071 C2.4074,6.1311 2.5654,5.5231 3.0154,5.2321 C3.4914,4.9411 4.0994,5.0991 4.3904,5.5491" id="Fill-3" fill="#FFFFFF"></path>
            <path d="M6.9294,9.6486 C7.2204,10.0986 7.0884,10.7066 6.6124,10.9976 C6.4534,11.1036 6.2684,11.1566 6.1094,11.1566 C5.7654,11.1566 5.4484,10.9976 5.2634,10.6796 C4.9724,10.2306 5.1044,9.6226 5.5804,9.3316 C6.0304,9.0406 6.6384,9.1726 6.9294,9.6486" id="Fill-5" fill="#FFFFFF"></path>
            <path d="M9.4949,13.7215 C9.7859,14.1975 9.6539,14.8055 9.1779,15.0965 C9.0189,15.2025 8.8339,15.2295 8.6489,15.2295 C8.3309,15.2295 7.9869,15.0705 7.8019,14.7795 C7.5109,14.3035 7.6699,13.6955 8.1199,13.4045 C8.5959,13.1135 9.2039,13.2455 9.4949,13.7215" id="Fill-7" fill="#FFFFFF"></path>
            <path d="M12.0339,17.821 C12.3249,18.271 12.1929,18.879 11.7429,19.17 C11.5579,19.276 11.3729,19.329 11.2139,19.329 C10.8699,19.329 10.5529,19.17 10.3679,18.852 C10.0769,18.403 10.2089,17.795 10.6849,17.504 C11.1349,17.213 11.7429,17.345 12.0339,17.821" id="Fill-9" fill="#FFFFFF"></path>
            <g id="Group-13" transform="translate(12.000000, 21.401600)">
                <mask id="mask-2" fill="white">
                    <use xlink:href="#path-1"></use>
                </mask>
                <g id="Clip-12"></g>
                <path d="M1.0654,0.3073 C1.2504,0.1223 1.4884,0.0163 1.7534,0.0163 C2.0174,0.0163 2.2824,0.1223 2.4674,0.3073 C2.6524,0.4923 2.7584,0.7573 2.7584,1.0213 C2.7584,1.2863 2.6524,1.5243 2.4674,1.7093 C2.2824,1.8943 2.0174,2.0003 1.7534,2.0003 C1.4884,2.0003 1.2504,1.8943 1.0654,1.7093 C0.8804,1.5243 0.7744,1.2863 0.7744,1.0213 C0.7744,0.7573 0.8804,0.4923 1.0654,0.3073" id="Fill-11" fill="#FFFFFF" mask="url(#mask-2)"></path>
            </g>
            <path d="M16.8474,17.5037 C17.2974,17.7947 17.4294,18.4027 17.1384,18.8527 C16.9534,19.1697 16.6354,19.3287 16.3184,19.3287 C16.1334,19.3287 15.9484,19.2757 15.7894,19.1697 C15.3134,18.8787 15.1814,18.2707 15.4724,17.8207 C15.7634,17.3447 16.3714,17.2127 16.8474,17.5037" id="Fill-14" fill="#FFFFFF"></path>
            <path d="M19.3864,13.4042 C19.8624,13.6952 19.9944,14.3032 19.7034,14.7792 C19.5184,15.0702 19.2014,15.2292 18.8574,15.2292 C18.6724,15.2292 18.4874,15.2022 18.3284,15.0972 C17.8794,14.8062 17.7204,14.1972 18.0114,13.7212 C18.3024,13.2452 18.9104,13.1132 19.3864,13.4042" id="Fill-16" fill="#FFFFFF"></path>
            <path d="M21.952,9.3312 C22.402,9.6222 22.534,10.2302 22.243,10.6802 C22.058,10.9972 21.74,11.1562 21.423,11.1562 C21.238,11.1562 21.053,11.1032 20.894,10.9972 C20.418,10.7062 20.286,10.0982 20.577,9.6482 C20.868,9.1722 21.476,9.0402 21.952,9.3312" id="Fill-18" fill="#FFFFFF"></path>
            <path d="M24.491,5.2317 C24.967,5.5227 25.099,6.1307 24.808,6.6067 C24.623,6.8977 24.306,7.0567 23.962,7.0567 C23.777,7.0567 23.592,7.0307 23.433,6.9247 C22.983,6.6337 22.825,6.0247 23.116,5.5487 C23.407,5.0997 24.015,4.9407 24.491,5.2317" id="Fill-20" fill="#FFFFFF"></path>
            <g id="Group-24" transform="translate(25.000000, 0.401600)">
                <mask id="mask-4" fill="white">
                    <use xlink:href="#path-3"></use>
                </mask>
                <g id="Clip-23"></g>
                <path d="M0.8134,0.8893 C0.9984,0.7043 1.2634,0.5983 1.5274,0.5983 C1.7654,0.5983 2.0304,0.7043 2.2154,0.8893 C2.4004,1.0743 2.5064,1.3393 2.5064,1.5773 C2.5064,1.8413 2.4004,2.1063 2.2154,2.2913 C2.0304,2.4763 1.7654,2.5823 1.5274,2.5823 C1.2634,2.5823 0.9984,2.4763 0.8134,2.2913 C0.6284,2.1063 0.5224,1.8413 0.5224,1.5773 C0.5224,1.3393 0.6284,1.0743 0.8134,0.8893" id="Fill-22" fill="#FFFFFF" mask="url(#mask-4)"></path>
            </g>
        </g>
    </g>
</svg>