<svg id="Layer_1" data-name="Layer 1" xmlns="http://www.w3.org/2000/svg" viewBox="0 0 250 250"><defs><style>.cls-1{fill:none;}</style></defs><circle class="cls-1" cx="125" cy="125" r="125"/><path d="M143.7,234.59l4.51-.87.28-2.18,3.85-.74L150,245.55l-3.64.7-7.67-12.82,4-.76Zm4.07,2.57-2.38.46.53,1,1.38,2.62.33-2.95Z" transform="translate(0)"/><path d="M133.66,243.9c0-.79-.74-1.15-2.27-1.18-3.2,0-5.07-1.5-5.2-4-.16-2.88,2-4.95,5.26-5.15,3.76-.22,5.92,1.72,5.91,5.22l-3.29.2a2.14,2.14,0,0,0-2.42-2.44c-1.24.08-1.9.78-1.86,1.56s.77,1.3,2.39,1.35c3.18.08,4.94,1.42,5.09,3.87.16,2.67-1.93,4.69-5,4.88-3.34.2-5.48-1.68-5.4-4.68l3.22-.19a1.7,1.7,0,0,0,1.95,1.9C133.05,245.18,133.7,244.64,133.66,243.9Z" transform="translate(0)"/><path d="M118.9,244.06c0-.79-.59-1.23-2.11-1.46-3.17-.44-4.84-2.11-4.66-4.61.2-2.87,2.57-4.67,5.86-4.46,3.75.25,5.65,2.44,5.21,5.92l-3.29-.22a2.13,2.13,0,0,0-2.1-2.71c-1.24-.08-2,.54-2,1.31-.06.93.6,1.39,2.2,1.64,3.15.47,4.73,2,4.57,4.46-.17,2.68-2.49,4.42-5.56,4.22-3.34-.21-5.22-2.34-4.78-5.3l3.22.2a1.7,1.7,0,0,0,1.7,2.14C118.13,245.25,118.85,244.79,118.9,244.06Z" transform="translate(0)"/><path d="M96.54,244.88l.64-3.31,6.8,1.31.35-1.82-6.09-1.17.61-3.18,6.1,1.17.42-2.17-7.16-1.38.64-3.31,10.69,2.07-2.66,13.78Z" transform="translate(0)"/><path d="M89.27,228.06l3.42,1.12-3.33,10.14,3.85,1.26-1,3.2-11.11-3.65,1-3.19,3.84,1.26Z" transform="translate(0)"/><path d="M74.88,221.89l3.18,1.69L71.47,236l-5.23-2.78a4.7,4.7,0,0,1,4.41-8.29l2,1.09ZM69.41,228a1.31,1.31,0,0,0-1.9.54,1.33,1.33,0,0,0,.6,1.89l1.73.92,1.3-2.43Z" transform="translate(0)"/><path d="M56.58,216.66l.51-6L60.5,213l-.72,5.46.86.61,2.81-4,3,2.07-8.09,11.47L53,224.88a4.32,4.32,0,0,1-1-6.31A4.38,4.38,0,0,1,56.58,216.66Zm.7,7.2,1.46-2.07-2-1.4a1.27,1.27,0,1,0-1.46,2.07Z" transform="translate(0)"/><path d="M39.92,204.41a7.12,7.12,0,0,1,10.47-.22,7.33,7.33,0,1,1-10,10.67A7.1,7.1,0,0,1,39.92,204.41Zm8.17,7.69A3.75,3.75,0,1,0,42.64,207a3.75,3.75,0,1,0,5.45,5.14Z" transform="translate(0)"/><path d="M39,192.15l2.26,2.8-8.3,6.7,2.54,3.15-2.62,2.12-7.35-9.1,2.62-2.12,2.54,3.15Z" transform="translate(0)"/><path d="M17.39,185.08l2.86-1.76,3.63,5.9,1.58-1L22.21,183,25,181.27l3.25,5.29,1.89-1.16-3.82-6.21,2.87-1.76,5.7,9.27-12,7.35Z" transform="translate(0)"/><path d="M12,174.66c-1.91-4.33,0-7.5,2.63-8.94l1.5,3.41a3,3,0,0,0-1.08,4c.94,2.15,2.9,2.82,5.1,1.84s3-2.87,2.08-5a3,3,0,0,0-3.71-1.88L17,164.67c2.81-.95,6.47-.28,8.4,4.06a7.11,7.11,0,0,1-3.75,9.65A7.1,7.1,0,0,1,12,174.66Z" transform="translate(0)"/><path d="M19.55,153.16l1,3.46-10.26,2.93,1.12,3.89-3.24.93L4.94,153.12l3.24-.92,1.11,3.89Z" transform="translate(0)"/><path d="M17.31,142.81l.65,3.55L4.14,148.89l-.65-3.54Z" transform="translate(0)"/><path d="M8.6,125.38a7.47,7.47,0,0,1,1,14.91,7.47,7.47,0,0,1-1-14.91Zm.75,11.19a3.75,3.75,0,1,0-.5-7.47,3.75,3.75,0,1,0,.5,7.47Z" transform="translate(0)"/><path d="M10.13,112.25l-2.73-.16-4.88-.42.3-3.48,14,1.21-.27,3.19L8.39,118l2.73.15,4.9.42-.3,3.5-14-1.21L2,117.64Z" transform="translate(0)"/><path d="M125,119.45a12.36,12.36,0,1,1,12.36-12.36A12.37,12.37,0,0,1,125,119.45Zm0-18.12a5.76,5.76,0,1,0,5.76,5.76A5.76,5.76,0,0,0,125,101.33Z" transform="translate(0)"/><path d="M178.58,117.2,125,63.61,90.1,98.51V78.45H83.5v26.66L71.42,117.2l4.66,4.67,7.42-7.42v51.22h83.07V114.52l7.35,7.35Zm-44.92,41.87H116.34V132h17.32Zm26.31,0H140.26V125.4H109.74v33.67H90.1V107.85L125,73l35,35Z" transform="translate(0)"/></svg>