<svg width="250" height="250" viewBox="0 0 250 250" fill="none" xmlns="http://www.w3.org/2000/svg">
<rect width="250" height="250" fill="#E5E5E5"/>
<g id="REVOLVE_ASSET_PROTECTION">
<g id="Group 2">
<path id="Vector" d="M143.7 234.59L148.21 233.72L148.49 231.54L152.34 230.8L150 245.55L146.36 246.25L138.69 233.43L142.69 232.67L143.7 234.59ZM147.77 237.16L145.39 237.62L145.92 238.62L147.3 241.24L147.63 238.29L147.77 237.16Z" fill="black"/>
<path id="Vector_2" d="M133.66 243.9C133.66 243.11 132.92 242.75 131.39 242.72C128.19 242.72 126.32 241.22 126.19 238.72C126.03 235.84 128.19 233.77 131.45 233.57C135.21 233.35 137.37 235.29 137.36 238.79L134.07 238.99C134.12 238.66 134.092 238.322 133.989 238.005C133.885 237.687 133.709 237.398 133.474 237.161C133.239 236.924 132.951 236.745 132.634 236.639C132.318 236.533 131.981 236.502 131.65 236.55C130.41 236.63 129.75 237.33 129.79 238.11C129.83 238.89 130.56 239.41 132.18 239.46C135.36 239.54 137.12 240.88 137.27 243.33C137.43 246 135.34 248.02 132.27 248.21C128.93 248.41 126.79 246.53 126.87 243.53L130.09 243.34C130.056 243.602 130.083 243.868 130.17 244.118C130.256 244.368 130.4 244.594 130.589 244.778C130.779 244.963 131.008 245.1 131.26 245.181C131.512 245.261 131.779 245.281 132.04 245.24C133.05 245.18 133.7 244.64 133.66 243.9Z" fill="black"/>
<path id="Vector_3" d="M118.9 244.06C118.9 243.27 118.31 242.83 116.79 242.6C113.62 242.16 111.95 240.49 112.13 237.99C112.33 235.12 114.7 233.32 117.99 233.53C121.74 233.78 123.64 235.97 123.2 239.45L119.91 239.23C120.001 238.909 120.015 238.571 119.952 238.244C119.888 237.916 119.749 237.608 119.544 237.345C119.34 237.081 119.077 236.869 118.775 236.726C118.474 236.583 118.143 236.512 117.81 236.52C116.57 236.44 115.81 237.06 115.81 237.83C115.75 238.76 116.41 239.22 118.01 239.47C121.16 239.94 122.74 241.47 122.58 243.93C122.41 246.61 120.09 248.35 117.02 248.15C113.68 247.94 111.8 245.81 112.24 242.85L115.46 243.05C115.391 243.307 115.383 243.576 115.437 243.836C115.491 244.096 115.605 244.34 115.771 244.548C115.936 244.757 116.148 244.923 116.389 245.034C116.63 245.146 116.894 245.199 117.16 245.19C118.13 245.25 118.85 244.79 118.9 244.06Z" fill="black"/>
<path id="Vector_4" d="M96.54 244.88L97.18 241.57L103.98 242.88L104.33 241.06L98.24 239.89L98.85 236.71L104.95 237.88L105.37 235.71L98.21 234.33L98.85 231.02L109.54 233.09L106.88 246.87L96.54 244.88Z" fill="black"/>
<path id="Vector_5" d="M89.27 228.06L92.69 229.18L89.36 239.32L93.21 240.58L92.21 243.78L81.1 240.13L82.1 236.94L85.94 238.2L89.27 228.06Z" fill="black"/>
<path id="Vector_6" d="M74.88 221.89L78.06 223.58L71.47 236L66.24 233.22C65.1999 232.604 64.4374 231.61 64.1109 230.446C63.7844 229.282 63.9191 228.037 64.4869 226.969C65.0547 225.902 66.012 225.095 67.1598 224.715C68.3076 224.335 69.5576 224.412 70.65 224.93L72.65 226.02L74.88 221.89ZM69.41 228C69.2531 227.898 69.0762 227.831 68.8912 227.803C68.7061 227.775 68.5172 227.787 68.3371 227.838C68.1571 227.889 67.9901 227.978 67.8474 228.099C67.7048 228.22 67.5897 228.371 67.51 228.54C67.4148 228.701 67.3546 228.881 67.3334 229.067C67.3123 229.252 67.3306 229.441 67.3873 229.619C67.4439 229.798 67.5376 229.962 67.6621 230.102C67.7866 230.241 67.9393 230.353 68.11 230.43L69.84 231.35L71.14 228.92L69.41 228Z" fill="black"/>
<path id="Vector_7" d="M56.58 216.66L57.09 210.66L60.5 213L59.78 218.46L60.64 219.07L63.45 215.07L66.45 217.14L58.36 228.61L53 224.88C52.4974 224.55 52.0694 224.118 51.7432 223.613C51.417 223.108 51.1999 222.54 51.1057 221.946C51.0116 221.352 51.0425 220.745 51.1965 220.164C51.3505 219.582 51.6242 219.04 52 218.57C52.4807 217.826 53.1757 217.245 53.9934 216.904C54.8111 216.563 55.713 216.478 56.58 216.66V216.66ZM57.28 223.86L58.74 221.79L56.74 220.39C56.6051 220.279 56.4487 220.197 56.2807 220.149C56.1127 220.102 55.9366 220.089 55.7635 220.112C55.5904 220.136 55.424 220.195 55.2747 220.285C55.1253 220.376 54.9963 220.496 54.8956 220.639C54.795 220.782 54.7248 220.944 54.6896 221.115C54.6543 221.286 54.6548 221.462 54.6908 221.633C54.7269 221.804 54.7979 221.966 54.8992 222.108C55.0006 222.25 55.1302 222.37 55.28 222.46L57.28 223.86Z" fill="black"/>
<path id="Vector_8" d="M39.92 204.41C40.5714 203.672 41.3687 203.078 42.2614 202.664C43.1541 202.25 44.123 202.026 45.1068 202.005C46.0906 201.984 47.068 202.168 47.9773 202.544C48.8866 202.92 49.7082 203.48 50.39 204.19C51.1707 204.825 51.8125 205.613 52.2753 206.506C52.7381 207.4 53.012 208.379 53.08 209.383C53.148 210.386 53.0087 211.393 52.6706 212.341C52.3326 213.289 51.8031 214.156 51.1151 214.891C50.4271 215.625 49.5953 216.209 48.6716 216.608C47.7479 217.007 46.752 217.211 45.7459 217.208C44.7398 217.205 43.7451 216.995 42.8236 216.591C41.9022 216.187 41.0738 215.598 40.39 214.86C39.6364 214.228 39.0222 213.447 38.5865 212.565C38.1508 211.683 37.903 210.721 37.8588 209.738C37.8146 208.756 37.975 207.775 38.3298 206.858C38.6846 205.94 39.2261 205.107 39.92 204.41V204.41ZM48.09 212.1C48.4832 211.755 48.7998 211.331 49.0194 210.856C49.239 210.381 49.3567 209.865 49.365 209.342C49.3733 208.818 49.2719 208.299 49.0674 207.817C48.8629 207.335 48.5599 206.902 48.1777 206.544C47.7956 206.187 47.3428 205.913 46.8486 205.741C46.3543 205.569 45.8295 205.502 45.3079 205.545C44.7863 205.588 44.2794 205.74 43.8199 205.99C43.3605 206.241 42.9585 206.585 42.64 207C42.2746 207.352 41.9844 207.775 41.7872 208.242C41.5899 208.71 41.4896 209.213 41.4924 209.72C41.4951 210.228 41.6008 210.73 41.8032 211.195C42.0055 211.66 42.3002 212.08 42.6694 212.428C43.0386 212.776 43.4746 213.046 43.9511 213.221C44.4276 213.396 44.9346 213.472 45.4414 213.445C45.9482 213.418 46.4443 213.288 46.8995 213.064C47.3548 212.84 47.7598 212.525 48.09 212.14V212.1Z" fill="black"/>
<path id="Vector_9" d="M39 192.15L41.26 194.95L32.96 201.65L35.5 204.8L32.88 206.92L25.53 197.82L28.15 195.7L30.69 198.85L39 192.15Z" fill="black"/>
<path id="Vector_10" d="M17.39 185.08L20.25 183.32L23.88 189.22L25.46 188.22L22.21 183L25 181.27L28.25 186.56L30.14 185.4L26.32 179.19L29.19 177.43L34.89 186.7L22.89 194.05L17.39 185.08Z" fill="black"/>
<path id="Vector_11" d="M12 174.66C10.09 170.33 12 167.16 14.63 165.72L16.13 169.13C15.4701 169.53 14.9897 170.169 14.7886 170.914C14.5874 171.659 14.6811 172.452 15.05 173.13C15.99 175.28 17.95 175.95 20.15 174.97C22.35 173.99 23.15 172.1 22.23 169.97C21.9744 169.238 21.4453 168.633 20.7537 168.283C20.062 167.932 19.2615 167.863 18.52 168.09L17 164.67C19.81 163.72 23.47 164.39 25.4 168.73C25.8173 169.605 26.0511 170.557 26.0871 171.526C26.123 172.495 25.9604 173.461 25.6092 174.365C25.2579 175.269 24.7255 176.091 24.0446 176.782C23.3638 177.472 22.5488 178.016 21.65 178.38C20.7768 178.8 19.8269 179.036 18.8589 179.075C17.8908 179.114 16.9251 178.954 16.0211 178.605C15.1172 178.257 14.2941 177.727 13.6025 177.048C12.911 176.37 12.3656 175.557 12 174.66Z" fill="black"/>
<path id="Vector_12" d="M19.55 153.16L20.55 156.62L10.29 159.55L11.41 163.44L8.17 164.37L4.94 153.12L8.18 152.2L9.29 156.09L19.55 153.16Z" fill="black"/>
<path id="Vector_13" d="M17.31 142.81L17.96 146.36L4.13999 148.89L3.48999 145.35L17.31 142.81Z" fill="black"/>
<path id="Vector_14" d="M8.6 125.38C10.5772 125.247 12.5261 125.906 14.0179 127.21C15.5098 128.514 16.4224 130.358 16.555 132.335C16.6876 134.312 16.0293 136.261 14.725 137.753C13.4207 139.245 11.5772 140.157 9.6 140.29C7.62281 140.423 5.67392 139.764 4.18207 138.46C2.69022 137.156 1.77761 135.312 1.645 133.335C1.51239 131.358 2.17065 129.409 3.47496 127.917C4.77928 126.425 6.62281 125.513 8.6 125.38V125.38ZM9.35 136.57C9.86123 136.566 10.3663 136.458 10.8342 136.252C11.3021 136.046 11.7228 135.746 12.0707 135.372C12.4186 134.997 12.6861 134.555 12.857 134.073C13.0279 133.591 13.0984 133.08 13.0642 132.57C13.0301 132.06 12.892 131.562 12.6585 131.107C12.4249 130.652 12.1008 130.25 11.7061 129.925C11.3115 129.6 10.8545 129.359 10.3633 129.217C9.87216 129.076 9.35717 129.036 8.85 129.1C8.33876 129.104 7.83369 129.212 7.36582 129.418C6.89794 129.624 6.47715 129.924 6.12929 130.298C5.78143 130.673 5.51385 131.115 5.343 131.597C5.17214 132.079 5.10162 132.59 5.13576 133.1C5.16991 133.61 5.308 134.108 5.54154 134.563C5.77509 135.018 6.09917 135.42 6.49385 135.745C6.88854 136.07 7.34551 136.311 7.83667 136.453C8.32784 136.594 8.84283 136.634 9.35 136.57V136.57Z" fill="black"/>
<path id="Vector_15" d="M10.13 112.25L7.39997 112.09L2.51997 111.67L2.81997 108.19L16.82 109.4L16.55 112.59L8.38997 118L11.12 118.15L16.02 118.57L15.72 122.07L1.71997 120.86L1.99997 117.64L10.13 112.25Z" fill="black"/>
</g>
<g id="Group 3">
<path id="Vector_16" d="M178.58 117.2L125 63.61L90.1 98.51V78.45H83.5V105.11L71.42 117.2L76.08 121.87L83.5 114.45V165.67H166.57V114.52L173.92 121.87L178.58 117.2ZM133.66 159.07H116.34V132H133.66V159.07ZM159.97 159.07H140.26V125.4H109.74V159.07H90.1V107.85L125 73L160 108L159.97 159.07Z" fill="black"/>
<path id="Vector_17" d="M125 119.45C122.555 119.45 120.166 118.725 118.133 117.367C116.101 116.009 114.516 114.078 113.581 111.82C112.645 109.561 112.401 107.076 112.877 104.679C113.354 102.281 114.532 100.079 116.26 98.3501C117.989 96.6216 120.191 95.4444 122.589 94.9675C124.986 94.4906 127.471 94.7353 129.73 95.6708C131.988 96.6063 133.919 98.1905 135.277 100.223C136.635 102.256 137.36 104.645 137.36 107.09C137.357 110.367 136.054 113.51 133.737 115.827C131.42 118.144 128.277 119.447 125 119.45V119.45ZM125 101.33C123.861 101.33 122.747 101.668 121.8 102.301C120.853 102.934 120.114 103.833 119.678 104.886C119.242 105.938 119.128 107.096 119.351 108.214C119.573 109.331 120.122 110.357 120.927 111.163C121.733 111.968 122.759 112.517 123.876 112.739C124.994 112.962 126.152 112.847 127.204 112.412C128.257 111.976 129.156 111.237 129.789 110.29C130.422 109.343 130.76 108.229 130.76 107.09C130.76 105.562 130.153 104.097 129.073 103.017C127.993 101.937 126.528 101.33 125 101.33Z" fill="black"/>
</g>
</g>
</svg>
