<svg data-name="Layer 1" xmlns="http://www.w3.org/2000/svg" viewBox="0 0 250 250"><circle cx="125" cy="125" r="125" fill="none"/><path d="M97.69 119.24a5.76 5.76 0 105.76 5.76 5.77 5.77 0 00-5.76-5.76zM152.31 119.24a5.76 5.76 0 105.76 5.76 5.77 5.77 0 00-5.76-5.76zM125 112.64A12.36 12.36 0 10137.36 125 12.37 12.37 0 00125 112.64zm0 18.12a5.76 5.76 0 115.76-5.76 5.76 5.76 0 01-5.76 5.76z"/><path d="M67.33 94.69v60.8h115.34v-61zm6.6 6.59h15.79L73.93 117zm0 47.61V133l15.92 15.92zm25.25 0L75.3 125l23.76-23.76 51.8-.08L174.7 125l-23.88 23.89zm76.89 0h-15.92L176.07 133zm0-31.85l-15.89-15.89h15.89zM24.1 166.5l-9.8 4.23-1.61-3.72-3.09 1.33 4.63 10.75 3.1-1.33-1.61-3.72 9.81-4.23-1.43-3.31zM21.13 158.49l-2.19-.07-1.29-4.42 1.81-1.26-1.13-3.87-12 8.84 1 3.56 14.91 1zm-6.76-.22l-3-.05 2.49-1.63.9-.62.68 2.33zM17.99 147.28l-.6-4.19-2.54-1.17-2.08-.92 1.74-1.47 2.12-1.82-.6-4.3-6.37 5.86-7.51-3.75.58 4.15 2.41 1.11 2.02.9-1.69 1.42-2.01 1.74.6 4.26 6.18-5.69 7.75 3.87zM15.9 122.17l-4.67-.29-3.06-.14 2.36-.5 5.51-1.28.22-3.41-5.31-1.96-2.28-.79 3.05.24 4.68.3.22-3.56-14.02-.88-.3 4.79 5.2 1.94 3.51 1.26-3.64.82-5.4 1.27-.3 4.8 14.02.88.21-3.49zM3.554 104.795l.642-3.542 13.825 2.502-.641 3.543zM9.32 94.03l10.27 2.9.98-3.46-10.27-2.91 1.1-3.89-3.24-.92-3.18 11.26 3.24.91 1.1-3.89zM9.733 81.724l1.311-3.353 13.075 5.116-1.312 3.353zM21.7 70.16l2.68 1.41 1.26-2.41a3 3 0 01.15 3.46c-1.05 2-3 2.51-5.15 1.38s-2.85-3-1.79-5a2.83 2.83 0 013.28-1.68l1.79-3.4c-2.11-1-5.88-.69-8.1 3.53a7.09 7.09 0 003.09 9.87 7.06 7.06 0 009.62-2.56 5.06 5.06 0 00.16-4.92l1.63.86 1.4-2.7-7-3.66zM24.37 54l8.33 12.4 2.3-3.14-1.29-1.79 2.71-3.7 2.1.66 2.37-3.26L26.56 51zm7.72 2.33l1 .34-1.43 2-.65-.89-1.77-2.39zM41.56 38.92l-2.45-2.31-8.01 8.54 2.46 2.3 2.77-2.95 7.78 7.3 2.47-2.63-7.79-7.3 2.77-2.95zM42.371 33.742l2.706-2.374 9.26 10.554-2.707 2.374zM54.46 23.74A7.1 7.1 0 0052.52 34a7.1 7.1 0 0010.32 1.74 7.1 7.1 0 001.94-10.28 7.1 7.1 0 00-10.32-1.72zM60.89 33a3.59 3.59 0 01-5.31-1.08 3.75 3.75 0 116.14-4.28 3.6 3.6 0 01-.83 5.36zM74.45 28.3l-2.16-4.41L71 21.47l8.83 4.19 2.88-1.42-6.19-12.6-3.14 1.54 2.16 4.39L76.81 20 68 15.82l-2.89 1.43 6.19 12.6 3.15-1.55z"/></svg>