<svg id="Layer_1" data-name="Layer 1" xmlns="http://www.w3.org/2000/svg" viewBox="0 0 300 300"><defs><style>.cls-1{fill:#fff}</style></defs><path class="cls-1" d="M138.17.46h-.3a3 3 0 00.24 6h.3a3 3 0 00-.24-6zM126.44 1.87h-.55a3 3 0 00.49 6 3.88 3.88 0 00.48 0 3 3 0 00-.47-6zM114.86 4.21a3 3 0 00-.72.09h-.06a3 3 0 00.72 5.92 3 3 0 00.72-.09 3 3 0 00-.71-5.92zM103.5 7.48a3 3 0 00-.93.15 3 3 0 001 5.84 3.09 3.09 0 001-.15 3 3 0 00-1-5.85zM92.45 11.66a3.06 3.06 0 00-1.17.24h-.06a3 3 0 002.36 5.52 3 3 0 00-1.18-5.77zM81.77 16.72a2.93 2.93 0 00-1.39.35 3 3 0 001.4 5.66 2.9 2.9 0 001.39-.35 3 3 0 00-1.4-5.66zM71.54 22.62a3 3 0 00-1.6.46h-.06a3 3 0 003.22 5.07 3 3 0 00-1.6-5.54zM61.81 29.33a3 3 0 00-1.8.6 3 3 0 001.8 5.4 3 3 0 001.8-.6 3 3 0 00-1.8-5.4zM52.65 36.79a3 3 0 00-2 .74l-.06.06a3 3 0 004 4.48 3 3 0 00-2-5.25zM44.11 45a3 3 0 00-2.16.91 3 3 0 004.33 4.16A3 3 0 0044.11 45zM36.25 53.78a3 3 0 00-2.31 1.09 3 3 0 104.64 3.8 3 3 0 00-2.32-4.9zM29.13 63.2a3 3 0 00-2.46 1.28A3 3 0 0031.56 68a3 3 0 00-.75-4.17 3 3 0 00-1.71-.54zM22.78 73.16a3 3 0 00-2.6 1.5 3 3 0 001.09 4.1 2.92 2.92 0 001.5.41 3 3 0 002.6-1.49 3 3 0 00-1.09-4.1 2.92 2.92 0 00-1.5-.41zM17.25 83.6a3 3 0 00-2.71 1.7v.06A3 3 0 0019.93 88a3 3 0 00-2.7-4.3zM12.58 94.45a3 3 0 00-2.8 1.93 3 3 0 001.73 3.87 2.86 2.86 0 001.07.2 3 3 0 002.8-1.93 3 3 0 00-1.73-3.87 3.07 3.07 0 00-1.07-.2zM8.8 105.64a3 3 0 00-2.87 2.16 3 3 0 002 3.72 2.71 2.71 0 00.84.12 3 3 0 002.88-2.15v-.06a3 3 0 00-2-3.72 3.12 3.12 0 00-.85-.12zM6 117.1a3 3 0 00-3 2.38v.06a3 3 0 002.33 3.54 3.23 3.23 0 00.61.06 3 3 0 002.94-2.39v-.05a3 3 0 00-2.33-3.55 3.23 3.23 0 00-.55-.05zM4 128.76a3 3 0 00-3 2.63 3 3 0 002.61 3.34h.37a3 3 0 003-2.63v-.06a3 3 0 00-2.61-3.34 2.42 2.42 0 00-.38 0zM3 140.53a3 3 0 00-3 2.87 3 3 0 002.87 3.13h.14a3 3 0 003-2.87v-.05a3 3 0 00-2.86-3.13zM3 152.35h-.11A3 3 0 000 155.44v.07a3 3 0 003 2.89h.11A3 3 0 006 155.29a3 3 0 00-3-2.89zM3.9 164.12a2 2 0 00-.35 0 3 3 0 00-2.64 3.31v.06a3 3 0 003 2.65h.35a3 3 0 002.63-3.33v-.05a3 3 0 00-3-2.66zM5.73 175.79a3 3 0 00-.59.06 3 3 0 00-2.36 3.52v.07a3 3 0 002.94 2.41 3 3 0 00.59-.06 3 3 0 002.36-3.53 3 3 0 00-2.94-2.42zM8.49 187.27a3 3 0 00-2.88 3.82 3 3 0 002.89 2.18 3 3 0 00.82-.12 3 3 0 002.07-3.71v-.05a3 3 0 00-2.89-2.18zM12.18 198.49a3 3 0 00-2.81 4v.06a3 3 0 002.81 1.94 3 3 0 001.05-.19 3 3 0 001.77-3.81v-.05a3 3 0 00-2.81-1.95zM16.76 209.38a3 3 0 00-1.27.28 3 3 0 00-1.44 4v.06a3 3 0 002.72 1.72 2.87 2.87 0 001.27-.29 3 3 0 001.44-4v-.05a3 3 0 00-2.72-1.72zM22.21 219.86a3.07 3.07 0 00-1.49.39 3 3 0 00-1.11 4.1v.05a3 3 0 002.61 1.51 3 3 0 002.6-4.49 3 3 0 00-2.61-1.51zM28.48 229.87a3 3 0 00-1.69.52 3 3 0 00-.78 4.17v.05a3 3 0 002.48 1.3 3 3 0 001.69-.52 3 3 0 00.78-4.17v-.05a3 3 0 00-2.48-1.3zM35.54 239.34a3 3 0 00-2.33 4.89 3 3 0 004.67-3.77 3 3 0 00-2.33-1.12zM43.33 248.23a3 3 0 00-2.18 5.05l.05.06a3 3 0 004.24.1 3 3 0 00.1-4.24 3 3 0 00-2.18-.93zM51.81 256.46a3 3 0 00-2 5.23 3 3 0 002 .77 3 3 0 002-5.24 3 3 0 00-2-.77zM60.91 264a3 3 0 00-1.83 5.38l.06.05a3 3 0 003.63-4.78 3 3 0 00-1.82-.61zM70.59 270.77a3 3 0 00-1.59 5.52 3 3 0 001.62.48 3 3 0 001.63-5.53h-.05a3 3 0 00-1.62-.47zM80.78 276.75a3 3 0 00-1.41 5.64 3 3 0 002.81-5.3 3 3 0 00-1.41-.35zM91.42 281.89a3 3 0 00-1.2 5.75 3 3 0 102.39-5.5 2.92 2.92 0 00-1.19-.25zM102.44 286.15a3 3 0 00-1 5.84h.05a3 3 0 001.94-5.68 3 3 0 00-1-.16zM113.76 289.51a3 3 0 00-.74 5.91 3.12 3.12 0 00.74.09 3 3 0 00.73-5.91 2.69 2.69 0 00-.74-.1zM125.32 292a3 3 0 00-.49 6h.06a4.22 4.22 0 00.49 0 3 3 0 00.5-6h-.06a2.74 2.74 0 00-.5 0zM137 293.44a3 3 0 00-.25 6h.31a3 3 0 00.26-6H137zM148.85 294a3 3 0 000 6h.09a3 3 0 000-6h-.08zM160.73 293.62h-.27a3 3 0 00.21 6h.33a3 3 0 00-.22-6zM172.47 292.3h-.46a3 3 0 00.45 6 3.42 3.42 0 00.45 0h.06a3 3 0 00-.45-6zM184.07 290a2.84 2.84 0 00-.7.08h-.05a3 3 0 00.69 5.92 3.25 3.25 0 00.69-.08h.07a3 3 0 00-.7-5.91zM195.44 286.85a3 3 0 00-.93.14 3 3 0 101.86 5.71h.05a3 3 0 00-.93-5.85zM206.52 282.75a3 3 0 00-1.15.23h-.05a3 3 0 001.15 5.77 3 3 0 001.16-.23h.05a3 3 0 00-1.16-5.77zM217.23 277.77a3.07 3.07 0 00-1.37.33 3 3 0 002.73 5.34 3 3 0 00-1.38-5.67zM227.51 271.94a3 3 0 00-1.58.45 3 3 0 001.58 5.55 2.91 2.91 0 001.57-.45h.06a3 3 0 00-1.59-5.55zM237.29 265.31a3 3 0 00-1.78.59 3 3 0 003.56 4.83 3 3 0 00-1.79-5.41zM246.51 257.92a3 3 0 00-2 .73 3 3 0 003.93 4.53 3 3 0 00.29-4.23 3 3 0 00-2.26-1zM255.11 249.81a3 3 0 00-2.15.9 3 3 0 004.29 4.2 3 3 0 00-2.15-5.09zM263 241a3 3 0 00-2.31 1.08 3 3 0 00.38 4.23 3 3 0 004.22-.38A3 3 0 00263 241zM270.23 231.67a3 3 0 00-2.46 1.27v.05a3 3 0 104.9 3.46v-.06a3 3 0 00-2.45-4.72zM276.65 221.76a3 3 0 00-2.59 1.47v.05a3 3 0 001 4.11 3 3 0 001.53.42 3 3 0 002.58-1.47 3 3 0 00-1.05-4.11 2.94 2.94 0 00-1.53-.42zM282.25 211.36a3 3 0 00-2.7 1.69 3 3 0 001.38 4 2.93 2.93 0 001.31.31 3 3 0 002.7-1.69 3 3 0 00-1.38-4 3.13 3.13 0 00-1.32-.3zM287 200.54a3 3 0 00-2.8 1.91v.05a3 3 0 105.59 2.19v-.05a3 3 0 00-2.79-4.1zM290.85 189.38a3 3 0 00-2.87 2.14 3 3 0 002 3.74 3.26 3.26 0 00.87.12 3 3 0 002.87-2.13v-.06a3 3 0 00-2-3.73 2.91 2.91 0 00-.87-.13zM293.79 177.94a3 3 0 00-2.93 2.38v.05a3 3 0 002.3 3.56 2.85 2.85 0 00.64.07 3 3 0 002.93-2.37v-.06a3 3 0 00-2.31-3.56 3.38 3.38 0 00-.63-.07zM295.8 166.31a3 3 0 00-3 2.61v.08a3 3 0 002.58 3.36h.4a3 3 0 003-2.61v-.06a3 3 0 00-2.59-3.36 2.55 2.55 0 00-.39 0zM296.87 154.54a3 3 0 00-3 2.85v.05a3 3 0 002.84 3.15h.16a3 3 0 003-2.85 3 3 0 00-2.85-3.15zM297 142.72h-.09a3 3 0 00-2.91 3.08v.05a3 3 0 003 2.92h.08a3 3 0 002.92-3.07v-.06a3 3 0 00-3-2.92zM296.19 130.94h-.32a3 3 0 00-2.66 3.31v.05a3 3 0 003 2.68 1.83 1.83 0 00.33 0 3 3 0 002.66-3.29v-.07a3 3 0 00-3-2.67zM294.45 119.26a2.75 2.75 0 00-.57 0 3 3 0 00-2.38 3.51v.05a3 3 0 002.95 2.44 3.66 3.66 0 00.57 0 3 3 0 002.38-3.51v-.06a3 3 0 00-2.94-2.43zM291.76 107.76a3.19 3.19 0 00-.8.1 3 3 0 00-2.09 3.7 3 3 0 002.89 2.2 3.09 3.09 0 00.8-.11 3 3 0 002.1-3.69 3 3 0 00-2.89-2.19zM288.15 96.51a3.1 3.1 0 00-1 .18 3 3 0 00-1.78 3.85 3 3 0 002.82 2 3.06 3.06 0 001-.18 3 3 0 001.8-3.84v-.06a3 3 0 00-2.82-2zM283.65 85.59a2.92 2.92 0 00-1.25.28 3 3 0 00-1.47 4 3 3 0 002.73 1.75 3.09 3.09 0 001.25-.27 3 3 0 001.47-4 3 3 0 00-2.73-1.75zM278.28 75.07a3 3 0 00-2.62 4.47 3 3 0 002.62 1.53 2.92 2.92 0 001.47-.39 3 3 0 001.14-4.08 3 3 0 00-2.62-1.53zM272.08 65a2.93 2.93 0 00-1.67.51 3 3 0 00-.82 4.16 3 3 0 005-3.34 3 3 0 00-2.51-1.33zM265.09 55.49a3 3 0 00-2.34 4.87 3 3 0 002.35 1.13 3 3 0 002.35-4.86v-.06a3 3 0 00-2.35-1.12zM257.37 46.55a3 3 0 00-2.19 5.05 3 3 0 004.39-4.1 3 3 0 00-2.19-1zM249 38.26a3 3 0 00-2 5.22 3 3 0 002 .78 3 3 0 002-5.21 3 3 0 00-2-.77zM239.9 30.66a3 3 0 00-1.83 5.34 3 3 0 001.83.62 3 3 0 001.84-5.37 3 3 0 00-1.83-.62zM230.28 23.81a3 3 0 00-1.65 5.51h.05a3 3 0 003.28-5h-.05a3.06 3.06 0 00-1.63-.48zM220.13 17.76a3 3 0 00-1.44 5.63h.05a3 3 0 002.87-5.27h-.05a3 3 0 00-1.43-.36zM209.53 12.54a3 3 0 00-1.22 5.74h.05a2.93 2.93 0 001.21.26 3 3 0 001.24-5.73 2.87 2.87 0 00-1.21-.26zM198.54 8.19a3 3 0 00-1 5.84 2.87 2.87 0 001 .17 3 3 0 001-5.83h-.06a3.12 3.12 0 00-1-.17zM187.24 4.75a3 3 0 00-.76 5.9h.05a3.38 3.38 0 00.76.1 3 3 0 00.76-5.91H188a2.82 2.82 0 00-.75-.1zM175.69 2.23a3 3 0 00-.52 6h.06a3 3 0 00.52 0 3 3 0 00.52-5.95h-.05a3.27 3.27 0 00-.53 0zM164 .65a3 3 0 00-.28 6h.34a3 3 0 00.29-6H164zM151.11 0h-.3a3 3 0 00.24 6h.3a3 3 0 00-.24-6z"/></svg>