<svg id="CONTAINER" xmlns="http://www.w3.org/2000/svg" viewBox="0 0 1224 792"><defs><style>.cls-1{fill:#fff;}.cls-2{fill:none;stroke:#000;stroke-linecap:round;stroke-linejoin:round;stroke-width:4px;stroke-dasharray:0 13.04;}.cls-3{fill:#dcdcdc;}</style></defs><title>wheel</title><circle id="BG" class="cls-1" cx="612" cy="396" r="390.62"/><g id="WHEEL"><g id="DOTS"><circle class="cls-2" cx="612" cy="396" r="296.77"/></g><g id="CURIOSITY"><path class="cls-3" d="M289.12,269.12c1.54-3.91,4.77-4.65,7.29-3.92l-1.22,3.08A2.67,2.67,0,0,0,292,270.1a3.49,3.49,0,0,0,6.49,2.55,2.65,2.65,0,0,0-1.12-3.52l1.21-3.08c2.36,1.19,4.22,3.92,2.67,7.85a6.51,6.51,0,0,1-12.11-4.78Z"/><path class="cls-3" d="M299.74,263.45l-6.82-3,1.33-3,7,3.1a2.11,2.11,0,1,0,1.71-3.86l-7-3.1,1.27-2.87,6.82,3a5.32,5.32,0,0,1-4.31,9.72Z"/><path class="cls-3" d="M309.08,244.22l5.38-.4-1.63,3.33-4.9.13-.41.85,3.89,1.91L310,252.91l-11.2-5.5,2.56-5.21a3.84,3.84,0,0,1,5.4-1.75A3.89,3.89,0,0,1,309.08,244.22Zm-6.23,1.61,2,1,.95-1.94a1.13,1.13,0,1,0-2-1Z"/><path class="cls-3" d="M317.3,238.5l-1.5,2.83-11-5.83,1.5-2.83Z"/><path class="cls-3" d="M319.82,221.25a6.64,6.64,0,1,1-8.95,2.53A6.31,6.31,0,0,1,319.82,221.25Zm-4.95,8.66a3.33,3.33,0,1,0-1.38-4.63A3.2,3.2,0,0,0,314.87,229.91Z"/><path class="cls-3" d="M320.77,214.5c.59.38,1.2.06,2-1,1.69-2.29,3.71-2.89,5.58-1.69,2.16,1.37,2.56,4,1,6.46-1.77,2.84-4.29,3.39-6.82,1.58l1.56-2.49a1.9,1.9,0,0,0,3-.49c.58-.93.41-1.77-.17-2.14s-1.34-.12-2.21,1c-1.7,2.26-3.58,2.84-5.42,1.68-2-1.27-2.41-3.82-.95-6.13,1.58-2.53,4-3.1,6.17-1.5L323,212.21a1.52,1.52,0,0,0-2.39.43C320.15,213.4,320.21,214.15,320.77,214.5Z"/><path class="cls-3" d="M335.19,208.82l-1.78,2.66L323,204.55l1.78-2.66Z"/><path class="cls-3" d="M340.67,201l-1.85,2.61-7.73-5.5L329,201l-2.44-1.74,6-8.47,2.44,1.73-2.09,2.93Z"/><path class="cls-3" d="M336.24,186l4.25.78,1.39.28-.63-1.27-1.82-3.92,2.19-2.83,3.55,8.6,3.49,2.69-2,2.54-3.48-2.69L334,188.86Z"/></g><g id="HUMOR"><path class="cls-3" d="M326.57,592.8l10.17-7.24,1.85,2.61-4,2.85,2.73,3.83,4-2.85,1.85,2.61L333,601.85l-1.86-2.61,3.74-2.66-2.73-3.83-3.74,2.66Z"/><path class="cls-3" d="M330.76,585.7l-6.25,4.07L322.73,587l6.41-4.17a2.11,2.11,0,1,0-2.3-3.54l-6.41,4.17-1.71-2.62L325,576.8a5.31,5.31,0,0,1,5.79,8.9Z"/><path class="cls-3" d="M321.49,570.7,320,572.24l2.32-1.42,3.59-2.11,1.57,2.67-10.76,6.34L314.56,574l3.34-3.63,2.27-2.41-3.21.81L312.17,570,310,566.3,320.76,560l1.61,2.73-3.59,2.12-2.37,1.34,2.07-.56,4.89-1.2,1.54,2.62Z"/><path class="cls-3" d="M307.67,548.64a6.64,6.64,0,1,1-2.67,8.91A6.31,6.31,0,0,1,307.67,548.64Zm4.64,8.83a3.33,3.33,0,1,0-4.64-1.32A3.2,3.2,0,0,0,312.31,557.47Z"/><path class="cls-3" d="M304.58,538.5l3-4.47,1.59,3.35-2.95,3.91.41.86,3.91-1.86,1.38,2.89-11.28,5.35-2.49-5.25a3.84,3.84,0,0,1,2-5.32A3.88,3.88,0,0,1,304.58,538.5ZM302,544.37l2-1-.93-1.95a1.13,1.13,0,1,0-2,1Z"/></g><g id="COMPASSION"><path class="cls-3" d="M675.78,737.05c-4.14.77-6.48-1.58-7.19-4.1l3.25-.6a2.66,2.66,0,0,0,3.24,1.75,3.49,3.49,0,0,0-1.27-6.86,2.67,2.67,0,0,0-2.39,2.83l-3.26.6c-.24-2.62,1.08-5.65,5.24-6.43a6.51,6.51,0,0,1,2.38,12.81Z"/><path class="cls-3" d="M652.64,734.07a6.65,6.65,0,1,1,7.48,5.54A6.31,6.31,0,0,1,652.64,734.07Zm9.88-1.38a3.34,3.34,0,1,0-2.82,3.92A3.21,3.21,0,0,0,662.52,732.69Z"/><path class="cls-3" d="M645.79,733.33l.77,2-.3-2.7-.38-4.14,3.09-.28,1.14,12.42-4.26.39L644,736.45l-1.22-3.09-.63,3.26-1,4.82-4.25.39-1.14-12.42,3.16-.29.38,4.14.19,2.71.39-2.1,1-4.93,3-.27Z"/><path class="cls-3" d="M629.32,729.73l3.2-.15.59,12.46-5.25.25a4.17,4.17,0,1,1-.4-8.33l2.06-.1Zm-1.4,7.16a1.16,1.16,0,0,0-1.2,1.28,1.18,1.18,0,0,0,1.32,1.17l1.74-.08-.12-2.45Z"/><path class="cls-3" d="M614.21,732l4.08,0,.58-1.86,3.49,0L618,742.61l-3.29,0L610,730.23l3.58,0Zm3.15,2.89-2.16,0,.32.92.8,2.52.75-2.54Z"/><path class="cls-3" d="M604.52,739.11c0-.71-.57-1.07-1.92-1.22-2.83-.28-4.38-1.71-4.3-3.94.08-2.55,2.12-4.23,5.05-4.15,3.34.08,5.1,2,4.83,5.07l-2.93-.08a1.9,1.9,0,0,0-2-2.34c-1.11,0-1.75.55-1.76,1.24s.57,1.21,2,1.38c2.81.31,4.26,1.63,4.2,3.8-.06,2.38-2,4-4.79,3.94-3-.08-4.71-1.9-4.42-4.54l2.86.07a1.51,1.51,0,0,0,1.59,1.83C603.88,740.2,604.5,739.76,604.52,739.11Z"/><path class="cls-3" d="M591.92,738.61c0-.7-.53-1.09-1.88-1.29-2.81-.38-4.31-1.87-4.16-4.09.18-2.55,2.28-4.15,5.21-4,3.34.2,5,2.15,4.64,5.24l-2.92-.18a1.9,1.9,0,0,0-1.87-2.41c-1.1-.07-1.76.48-1.81,1.17s.54,1.24,2,1.45c2.79.42,4.2,1.79,4.07,4-.15,2.38-2.21,3.94-4.94,3.77-3-.19-4.65-2.07-4.26-4.71l2.86.18a1.52,1.52,0,0,0,1.52,1.89C591.24,739.68,591.88,739.27,591.92,738.61Z"/><path class="cls-3" d="M580,728.66l3.19.29-1.14,12.42-3.18-.29Z"/><path class="cls-3" d="M563.12,733a6.65,6.65,0,1,1,5.79,7.28A6.32,6.32,0,0,1,563.12,733Zm9.9,1.23a3.33,3.33,0,1,0-3.74,3A3.2,3.2,0,0,0,573,734.21Z"/><path class="cls-3" d="M552,730.58l-.35,2.41-.73,4.29-3.06-.52,2.1-12.3,2.81.47,4.19,7.62.33-2.42.73-4.3,3.08.52L559,738.66l-2.82-.48Z"/></g><g id="INTEGRITY"><path class="cls-3" d="M923.7,516.66l1.15-3,11.65,4.46-1.15,3Z"/><path class="cls-3" d="M924.56,529.64l2.27.89,4,1.68-1.2,2.86-11.51-4.83,1.1-2.62,8.37-2.36-2.28-.87-4-1.69,1.2-2.87L934,524.66l-1.11,2.64Z"/><path class="cls-3" d="M914.15,538.87l1.36-2.9,8.59,4,1.53-3.26,2.71,1.27-4.41,9.42-2.71-1.27,1.53-3.26Z"/><path class="cls-3" d="M918.24,558.58l-2.66-1.37,2.82-5.47-1.47-.75-2.52,4.9-2.56-1.31,2.52-4.91-1.75-.9-3,5.76L907,553.16l4.42-8.6,11.1,5.7Z"/><path class="cls-3" d="M905.19,565.25l1.19-2.1,2.34,1.32-2.88,5.1-6.09-3.45,1.32-2.34,1.42.81a4.51,4.51,0,0,1,.29-4.37,6.52,6.52,0,0,1,11.09,6.85c-2.09,3.69-5.45,3.81-7.29,2.92l1.68-3a2.52,2.52,0,0,0,3-1.4c1-1.76.43-3.46-1.45-4.52s-3.63-.67-4.62,1.08A2.64,2.64,0,0,0,905.19,565.25Z"/><path class="cls-3" d="M898.21,577.46l-5.4-.14,2-3.15,4.88.36.5-.8-3.68-2.29,1.69-2.72,10.6,6.6-3.07,4.93a3.85,3.85,0,0,1-5.55,1.2A3.9,3.9,0,0,1,898.21,577.46Zm6.36-1-1.92-1.19-1.14,1.83a1.13,1.13,0,1,0,1.92,1.19Z"/><path class="cls-3" d="M889.46,582.33l1.78-2.67,10.39,6.91-1.77,2.67Z"/><path class="cls-3" d="M884,590.24l1.85-2.62,7.74,5.48,2.08-2.94,2.44,1.73-6,8.49-2.44-1.73,2.08-2.94Z"/><path class="cls-3" d="M888.49,605.21l-4.25-.76-1.4-.29.64,1.28,1.84,3.91-2.18,2.84-3.59-8.6-3.49-2.68,2-2.54,3.49,2.68,9.24,1.24Z"/></g><g id="CIVILITY"><path class="cls-3" d="M890.45,189c2.51,3.38,1.43,6.52-.52,8.27l-2-2.66a2.66,2.66,0,0,0,.16-3.68,3.49,3.49,0,0,0-5.6,4.16,2.64,2.64,0,0,0,3.58.9l2,2.66c-2.25,1.38-5.56,1.52-8.08-1.87A6.52,6.52,0,0,1,890.45,189Z"/><path class="cls-3" d="M887.41,206.67l-1.83-2.62,10.26-7.12,1.82,2.63Z"/><path class="cls-3" d="M895.86,211.7l2.55-.72,5.8-1.54,1.91,2.92-12.94,3-1.8-2.76,8-10.61,2,3-3.76,4.69Z"/><path class="cls-3" d="M898.6,224.1l-1.66-2.74,10.67-6.46,1.66,2.73Z"/><path class="cls-3" d="M904.54,228.32l2.74,4.8-2.6,1.48L900.36,227l10.85-6.18,1.58,2.78Z"/><path class="cls-3" d="M907.5,239.89l-1.5-2.82,11-5.89,1.51,2.82Z"/><path class="cls-3" d="M911.88,248.46l-1.43-2.87,8.49-4.23-1.6-3.22L920,236.8l4.64,9.31L922,247.45l-1.61-3.23Z"/><path class="cls-3" d="M927.19,251.6,924.51,255l-.91,1.1,1.42,0,4.32.23,1.47,3.27-9.27-.91-4,1.8-1.32-2.91,4-1.81,5.46-7.55Z"/></g><g id="DETERMINATION"><path d="M534.57,70.87l-5.47,1.29L526.22,60l5.46-1.29a6.24,6.24,0,0,1,2.89,12.14Zm-1-2.84a3.25,3.25,0,0,0-1.5-6.32l-2,.48,1.49,6.32Z"/><path d="M550.13,54.85l.57,2.93-6,1.18.31,1.62,5.42-1.06.55,2.83-5.42,1,.37,1.93,6.36-1.23.57,2.93-9.49,1.85L541,56.63Z"/><path d="M561.85,65.58l-3.16.49-1.46-9.37-3.55.55-.46-3,10.27-1.6.46,2.95-3.56.56Z"/><path d="M575.91,51.18l.35,3-6.12.72.2,1.64,5.48-.65.34,2.86-5.48.65.23,2,6.43-.76.35,3-9.61,1.14-1.46-12.39Z"/><path d="M587.61,58l3.09,4.42-3.7.3-2.6-4.14-.95.07L583.8,63l-3.19.25-1-12.43,5.79-.46a3.84,3.84,0,0,1,4.26,3.75A3.9,3.9,0,0,1,587.61,58ZM583,53.5l.18,2.25,2.15-.17a1.06,1.06,0,0,0,1.06-1.21,1,1,0,0,0-1.23-1Z"/><path d="M596.85,57.33l-.65-2,.14,2.71.15,4.16-3.1.11L593,49.8l4.27-.15,1.59,4.66,1,3.15.81-3.21,1.26-4.77,4.27-.15.44,12.47-3.17.12-.15-4.16,0-2.72-.51,2.08L601.49,62l-3,.11Z"/><path d="M613.23,61.82H610V49.34h3.2Z"/><path d="M625,56.36V53.93l.13-4.35,3.11.1-.39,12.47L625,62.06l-5.2-7v2.43l-.14,4.37-3.12-.1L617,49.33l2.86.09Z"/><path d="M638.65,61l-4.07-.3-.74,1.81-3.48-.26,5.45-12.11,3.29.24,3.62,12.78-3.58-.26Zm-2.89-3.15,2.15.16-.23-1-.58-2.57-1,2.46Z"/><path d="M650.24,64l-3.18-.35,1-9.43-3.58-.39.33-3L655.17,52l-.33,3-3.57-.39Z"/><path d="M659.76,65.23l-3.17-.44,1.71-12.37,3.17.44Z"/><path d="M676.85,61.72a6.64,6.64,0,1,1-5.43-7.55A6.3,6.3,0,0,1,676.85,61.72ZM667,60a3.33,3.33,0,1,0,3.87-2.87A3.2,3.2,0,0,0,667,60Z"/><path d="M687.85,64.64l.46-2.39.93-4.25,3,.67-2.68,12.18-2.78-.61L683,62.44l-.44,2.39-.94,4.27-3.05-.67,2.68-12.19,2.8.62Z"/></g></g></svg>