<?xml version="1.0" encoding="UTF-8"?>
<svg width="800px" height="800px" viewBox="0 0 800 800" version="1.1" xmlns="http://www.w3.org/2000/svg" xmlns:xlink="http://www.w3.org/1999/xlink">
    <!-- Generator: Sketch 57.1 (83088) - https://sketch.com -->
    <title>WHEEL</title>
    <desc>Created with Sketch.</desc>
    <defs>
        <polygon id="path-1" points="0.3213 0.517 14.0023 0.517 14.0023 13.4569 0.3213 13.4569"></polygon>
    </defs>
    <g id="Page-1" stroke="none" stroke-width="1" fill="none" fill-rule="evenodd">
        <g id="WHEEL">
            <circle id="BG" fill="#F4F4F4" opacity="0.00783575149" cx="400" cy="400" r="400"></circle>
            <path d="M102.6071,399.6693 C102.6071,235.7693 235.4741,102.9013 399.3751,102.9013 C563.2751,102.9013 696.1421,235.7693 696.1421,399.6693 C696.1421,563.5693 563.2751,696.4373 399.3751,696.4373 C235.4741,696.4373 102.6071,563.5693 102.6071,399.6693 Z" id="DOTS" stroke="#000000" stroke-width="4" stroke-linecap="round" stroke-linejoin="round" stroke-dasharray="0,13.04"></path>
            <g id="CURIOSITY" transform="translate(76.000140, 182.655000)" fill="#DCDCDC">
                <path d="M0.492659562,90.1363 C2.03365956,86.2213 5.26465956,85.4823 7.77965956,86.2153 L6.56565956,89.2963 C5.10865956,88.9803 3.93265956,89.6523 3.35765956,91.1113 C2.59665956,93.0453 3.38865956,94.6993 5.38365956,95.4853 C7.37765956,96.2703 9.08665956,95.6023 9.84765956,93.6673 C10.4226596,92.2083 10.0206596,90.9153 8.72465956,90.1463 L9.93765956,87.0653 C12.2916596,88.2503 14.1576596,90.9793 12.6086596,94.9093 C11.2956596,98.2433 7.80265956,99.9973 4.17065956,98.5673 C0.537659562,97.1363 -0.826340438,93.4863 0.492659562,90.1363" id="Fill-3"></path>
                <path d="M11.1157596,84.4635 L4.29775956,81.4385 L5.62175956,78.4545 L12.6147596,81.5575 C13.8867596,82.1215 14.9637596,81.5135 15.4177596,80.4885 C15.8717596,79.4645 15.6007596,78.2595 14.3287596,77.6945 L7.33575956,74.5925 L8.60775956,71.7245 L15.4257596,74.7495 C18.4687596,76.0995 19.3517596,78.9605 18.1117596,81.7545 C16.8657596,84.5635 14.1587596,85.8135 11.1157596,84.4635" id="Fill-5"></path>
                <path d="M14.2260596,66.8478 L16.2510596,67.8428 L17.2040596,65.9048 C17.5780596,65.1438 17.1790596,64.6098 16.7060596,64.3768 C16.2040596,64.1298 15.5520596,64.1488 15.1790596,64.9098 L14.2260596,66.8478 Z M20.4540596,65.2378 L25.8370596,64.8368 L24.2010596,68.1668 L19.3080596,68.2938 L18.8930596,69.1408 L22.7830596,71.0528 L21.3720596,73.9248 L10.1740596,68.4208 L12.7360596,63.2098 C13.8640596,60.9128 16.2010596,60.5108 18.1380596,61.4628 C19.6030596,62.1818 20.5650596,63.5638 20.4540596,65.2378 L20.4540596,65.2378 Z" id="Fill-7"></path>
                <polygon id="Fill-9" points="28.6703596 59.5167 27.1743596 62.3467 16.1393596 56.5117 17.6353596 53.6817"></polygon>
                <path d="M26.2407596,50.9215 C28.0747596,51.9705 29.9217596,51.5155 30.9227596,49.7645 C31.9247596,48.0145 31.3817596,46.1915 29.5487596,45.1425 C27.7147596,44.0925 25.8677596,44.5475 24.8657596,46.2985 C23.8647596,48.0495 24.4067596,49.8715 26.2407596,50.9215 M31.1937596,42.2665 C34.5137596,44.1665 35.4807596,47.8915 33.5487596,51.2675 C31.6167596,54.6435 27.9147596,55.6965 24.5947596,53.7975 C21.2737596,51.8975 20.3077596,48.1715 22.2397596,44.7965 C24.1727596,41.4205 27.8737596,40.3665 31.1937596,42.2665" id="Fill-11"></path>
                <path d="M32.1401596,35.5143 C32.7371596,35.8893 33.3491596,35.5753 34.1671596,34.4823 C35.8501596,32.1953 37.8711596,31.5933 39.7461596,32.7893 C41.9071596,34.1653 42.3061596,36.7783 40.7481596,39.2583 C38.9701596,42.0903 36.4501596,42.6433 33.9231596,40.8293 L35.4811596,38.3493 C36.6351596,39.1883 37.7591596,39.0243 38.4911596,37.8593 C39.0781596,36.9243 38.9081596,36.0803 38.3261596,35.7143 C37.6211596,35.2723 36.9861596,35.5913 36.1121596,36.7433 C34.4111596,38.9993 32.5361596,39.5793 30.6921596,38.4223 C28.6731596,37.1543 28.2881596,34.6073 29.7441596,32.2893 C31.3271596,29.7693 33.7841596,29.1963 35.9141596,30.7983 L34.3911596,33.2243 C33.4761596,32.5743 32.5921596,32.7183 32.0051596,33.6533 C31.5281596,34.4113 31.5841596,35.1653 32.1401596,35.5143" id="Fill-13"></path>
                <polygon id="Fill-15" points="46.5649596 29.8361 44.7869596 32.4961 34.4169596 25.5601 36.1939596 22.9001"></polygon>
                <polygon id="Fill-17" points="52.0473596 21.9664 50.1933596 24.5744 42.4603596 19.0754 40.3733596 22.0094 37.9353596 20.2754 43.9633596 11.7994 46.4013596 13.5324 44.3153596 16.4674"></polygon>
                <polygon id="Fill-19" points="47.6127596 6.964 51.8647596 7.741 53.2587596 8.029 52.6267596 6.753 50.8007596 2.837 52.9897596 0 56.5497596 8.609 60.0317596 11.298 58.0757596 13.831 54.5937596 11.142 45.3647596 9.877"></polygon>
            </g>
            <g id="HUMOR" transform="translate(85.139424, 537.700300)" fill="#DCDCDC">
                <polygon id="Fill-21" points="28.8074759 58.7727 38.9724759 51.5297 40.8294759 54.1357 36.8284759 56.9867 39.5594759 60.8187 43.5604759 57.9667 45.4174759 60.5747 35.2514759 67.8187 33.3954759 65.2107 37.1354759 62.5447 34.4054759 58.7137 30.6644759 61.3787"></polygon>
                <path d="M32.9988759,51.6702 L26.7498759,55.7362 L24.9698759,53.0022 L31.3788759,48.8302 C32.5458759,48.0702 32.6208759,46.8382 32.0108759,45.8992 C31.3988759,44.9612 30.2408759,44.5292 29.0748759,45.2892 L22.6658759,49.4612 L20.9548759,46.8342 L27.2028759,42.7662 C29.9918759,40.9512 32.8718759,41.7682 34.5388759,44.3282 C36.2148759,46.9022 35.7868759,49.8542 32.9988759,51.6702" id="Fill-23"></path>
                <polygon id="Fill-25" points="23.7225759 36.6662 22.2355759 38.2112 24.5565759 36.7892 28.1425759 34.6782 29.7175759 37.3532 18.9585759 43.6872 16.7905759 40.0062 20.1365759 36.3832 22.4105759 33.9652 19.1955759 34.7812 14.4025759 35.9492 12.2345759 32.2682 22.9935759 25.9322 24.6015759 28.6622 21.0145759 30.7752 18.6455759 32.1142 20.7165759 31.5622 25.6005759 30.3592 27.1435759 32.9802"></polygon>
                <path d="M14.5447759,23.4358 C16.4137759,22.4518 17.0207759,20.6498 16.0817759,18.8658 C15.1427759,17.0808 13.3137759,16.5608 11.4437759,17.5448 C9.57477593,18.5288 8.96777593,20.3318 9.90677593,22.1158 C10.8457759,23.8988 12.6757759,24.4198 14.5447759,23.4358 M9.90077593,14.6138 C13.2847759,12.8318 16.9467759,14.0158 18.7587759,17.4568 C20.5687759,20.8988 19.4727759,24.5858 16.0877759,26.3678 C12.7027759,28.1488 9.04177593,26.9648 7.23077593,23.5238 C5.41877593,20.0828 6.51677593,16.3948 9.90077593,14.6138" id="Fill-27"></path>
                <path d="M4.20297593,10.342 L6.24097593,9.376 L5.31697593,7.424 C4.95397593,6.658 4.28897593,6.637 3.81097593,6.863 C3.30597593,7.104 2.91497593,7.623 3.27797593,8.391 L4.20297593,10.342 Z M6.81797593,4.465 L9.85397593,-4.26325641e-14 L11.4429759,3.354 L8.49797593,7.263 L8.90197593,8.115 L12.8199759,6.26 L14.1899759,9.151 L2.91297593,14.494 L0.426975931,9.246 C-0.669024069,6.932 0.469975931,4.854 2.42197593,3.928 C3.89497593,3.229 5.57497593,3.336 6.81797593,4.465 L6.81797593,4.465 Z" id="Fill-29"></path>
            </g>
            <g id="COMPASSION" transform="translate(335.237700, 727.791333)" fill="#DCDCDC">
                <path d="M127.9172,12.9277668 C123.7792,13.6987668 121.4382,11.3507668 120.7252,8.83076679 L123.9812,8.22376679 C124.4862,9.62776679 125.6802,10.2687668 127.2222,9.98176679 C129.2672,9.60076679 130.2482,8.04976679 129.8552,5.94276679 C129.4632,3.83376679 127.9892,2.74076679 125.9442,3.12176679 C124.4022,3.40876679 123.5202,4.43676679 123.5572,5.94376679 L120.3002,6.54976679 C120.0562,3.92576679 121.3792,0.895766789 125.5322,0.121766789 C129.0572,-0.534233211 132.3972,1.49676679 133.1122,5.33476679 C133.8272,9.17476679 131.4572,12.2687668 127.9172,12.9277668" id="Fill-31"></path>
                <path d="M114.6526,8.57036679 C114.3606,6.47736679 112.8706,5.29636679 110.8726,5.57536679 C108.8756,5.85236679 107.7646,7.39736679 108.0576,9.49136679 C108.3496,11.5833668 109.8406,12.7653668 111.8376,12.4873668 C113.8356,12.2083668 114.9446,10.6633668 114.6526,8.57036679 M104.7756,9.94836679 C104.2476,6.15936679 106.6016,3.11636679 110.4546,2.57836679 C114.3066,2.04036679 117.4056,4.32336679 117.9346,8.11236679 C118.4636,11.9013668 116.1076,14.9453668 112.2556,15.4833668 C108.4026,16.0203668 105.3036,13.7373668 104.7756,9.94836679" id="Fill-33"></path>
                <polygon id="Fill-35" points="97.9319 9.20806679 98.6929 11.2100668 98.3989 8.50706679 98.0219 4.36406679 101.1119 4.08306679 102.2429 16.5090668 97.9899 16.8950668 96.1439 12.3250668 94.9309 9.23906679 94.2959 12.4940668 93.3059 17.3220668 89.0519 17.7100668 87.9209 5.28406679 91.0759 4.99706679 91.4529 9.13906679 91.6519 11.8510668 92.0369 9.74406679 93.0359 4.81806679 96.0619 4.54306679"></polygon>
                <path d="M80.0579,12.7724668 C79.2109,12.8134668 78.8229,13.3914668 78.8539,14.0474668 C78.8839,14.6864668 79.3279,15.2564668 80.1739,15.2174668 L81.9149,15.1334668 L81.7989,12.6894668 L80.0579,12.7724668 Z M81.4609,5.61246679 L84.6569,5.46046679 L85.2509,17.9204668 L79.9959,18.1714668 C77.3429,18.2984668 75.7329,16.4214668 75.6259,14.2014668 C75.5199,11.9644668 76.9449,9.95946679 79.5969,9.83346679 L81.6579,9.73346679 L81.4609,5.61246679 Z" id="Fill-37"></path>
                <path d="M69.5002,10.7998668 L67.3412,10.8248668 L67.6562,11.7488668 L68.4552,14.2668668 L69.2072,11.7308668 L69.5002,10.7998668 Z M66.3452,7.91086679 L70.4232,7.86086679 L71.0082,5.99886679 L74.4932,5.95486679 L70.1062,18.4848668 L66.8122,18.5258668 L62.1162,6.10886679 L65.6982,6.06386679 L66.3452,7.91086679 Z" id="Fill-39"></path>
                <path d="M56.6536,14.9853668 C56.6726,14.2813668 56.0896,13.9153668 54.7326,13.7673668 C51.9076,13.4873668 50.3606,12.0543668 50.4336,9.83236679 C50.5156,7.27436679 52.5586,5.59836679 55.4856,5.67336679 C58.8276,5.75936679 60.5876,7.64536679 60.3156,10.7433668 L57.3886,10.6673668 C57.5216,9.24736679 56.8076,8.36436679 55.4326,8.32936679 C54.3296,8.29936679 53.6906,8.87636679 53.6736,9.56336679 C53.6516,10.3953668 54.2496,10.7783668 55.6856,10.9443668 C58.4936,11.2563668 59.9486,12.5733668 59.8916,14.7493668 C59.8306,17.1313668 57.8366,18.7593668 55.1016,18.6893668 C52.1276,18.6123668 50.3826,16.7923668 50.6746,14.1433668 L53.5376,14.2163668 C53.4446,15.3353668 54.0186,16.0213668 55.1226,16.0493668 C56.0176,16.0733668 56.6366,15.6403668 56.6536,14.9853668" id="Fill-41"></path>
                <path d="M44.0549,14.4892668 C44.0989,13.7862668 43.5299,13.3972668 42.1779,13.2022668 C39.3639,12.8182668 37.8679,11.3302668 38.0219,9.11026679 C38.1969,6.55526679 40.3009,4.95426679 43.2249,5.13526679 C46.5639,5.34326679 48.2539,7.29226679 47.8699,10.3802668 L44.9469,10.1982668 C45.1309,8.78226679 44.4499,7.87426679 43.0759,7.78826679 C41.9739,7.71926679 41.3139,8.27226679 41.2709,8.96026679 C41.2189,9.79026679 41.8039,10.1952668 43.2339,10.4122668 C46.0309,10.8272668 47.4369,12.1962668 47.3019,14.3702668 C47.1549,16.7502668 45.1009,18.3062668 42.3689,18.1362668 C39.3979,17.9522668 37.7179,16.0672668 38.1069,13.4292668 L40.9659,13.6072668 C40.8329,14.7212668 41.3819,15.4282668 42.4849,15.4972668 C43.3789,15.5532668 44.0139,15.1432668 44.0549,14.4892668" id="Fill-43"></path>
                <polygon id="Fill-45" points="32.1663 4.53616679 35.3533 4.82616679 34.2223 17.2511668 31.0353 16.9621668"></polygon>
                <path d="M25.1575,10.0888668 C25.4195,7.99286679 24.2875,6.46386679 22.2855,6.21386679 C20.2845,5.96386679 18.8105,7.16686679 18.5495,9.26486679 C18.2875,11.3608668 19.4195,12.8898668 21.4215,13.1398668 C23.4225,13.3898668 24.8955,12.1868668 25.1575,10.0888668 M15.2615,8.85486679 C15.7355,5.05786679 18.8015,2.72986679 22.6605,3.21186679 C26.5205,3.69386679 28.9195,6.70386679 28.4455,10.4998668 C27.9705,14.2958668 24.9055,16.6238668 21.0465,16.1418668 C17.1855,15.6588668 14.7875,12.6498668 15.2615,8.85486679" id="Fill-47"></path>
                <polygon id="Fill-49" points="4.137 6.45996679 3.791 8.86996679 3.061 13.1609668 -2.84217094e-14 12.6399668 2.095 0.332966789 4.904 0.811966789 9.095 8.42496679 9.424 6.01296679 10.158 1.70596679 13.234 2.22996679 11.139 14.5359668 8.316 14.0559668"></polygon>
            </g>
            <g id="INTEGRITY" transform="translate(663.430800, 517.337600)" fill="#DCDCDC">
                <polygon id="Fill-51" points="47.6479 2.987 48.7919 -2.84217094e-14 60.4409 4.458 59.2969 7.445"></polygon>
                <polygon id="Fill-53" points="48.5034 15.9743 50.7704 16.8573 54.7814 18.5403 53.5814 21.4023 42.0754 16.5743 43.1784 13.9483 51.5394 11.5933 49.2664 10.7263 45.2394 9.0363 46.4454 6.1603 57.9514 10.9883 56.8434 13.6283"></polygon>
                <polygon id="Fill-55" points="38.0932 25.2008 39.4502 22.3018 48.0452 26.3238 49.5722 23.0618 52.2822 24.3308 47.8732 33.7538 45.1622 32.4838 46.6892 29.2218"></polygon>
                <polygon id="Fill-57" points="42.185 44.9147 39.525 43.5467 42.34 38.0697 40.875 37.3177 38.352 42.2247 35.791 40.9077 38.315 36.0007 36.565 35.1017 33.603 40.8627 30.943 39.4947 35.369 30.8887 46.463 36.5937"></polygon>
                <path d="M29.1362,51.5807 L30.3262,49.4767 L32.6662,50.8017 L29.7812,55.8997 L23.6932,52.4547 L25.0172,50.1147 L26.4382,50.9187 C25.8162,49.6457 25.8132,48.1557 26.7202,46.5537 C28.2102,43.9207 31.9762,42.6307 35.3462,44.5387 C38.7452,46.4627 39.5902,50.2687 37.8162,53.4037 C35.7262,57.0957 32.3652,57.2167 30.5192,56.3177 L32.2062,53.3377 C33.3382,53.6457 34.4422,53.2227 35.1662,51.9407 C36.1602,50.1847 35.5952,48.4857 33.7152,47.4217 C31.8342,46.3567 30.0862,46.7477 29.0932,48.5037 C28.4072,49.7157 28.5292,50.8327 29.1362,51.5807" id="Fill-59"></path>
                <path d="M28.5122,62.8112 L26.5972,61.6192 L25.4552,63.4522 C25.0062,64.1712 25.3482,64.7422 25.7972,65.0212 C26.2732,65.3182 26.9222,65.3652 27.3702,64.6442 L28.5122,62.8112 Z M22.1542,63.7902 L16.7542,63.6502 L18.7172,60.4992 L23.5982,60.8632 L24.0982,60.0622 L20.4162,57.7692 L22.1082,55.0532 L32.7022,61.6512 L29.6322,66.5812 C28.2792,68.7532 25.9132,68.9202 24.0802,67.7792 C22.6942,66.9152 21.8762,65.4452 22.1542,63.7902 L22.1542,63.7902 Z" id="Fill-61"></path>
                <polygon id="Fill-63" points="13.4077 68.6598 15.1797 65.9938 25.5787 72.9038 23.8057 75.5708"></polygon>
                <polygon id="Fill-65" points="7.9341 76.568 9.7801 73.955 17.5281 79.431 19.6051 76.492 22.0481 78.218 16.0461 86.71 13.6031 84.982 15.6811 82.044"></polygon>
                <polygon id="Fill-67" points="12.438 91.5407 8.183 90.7767 6.787 90.4917 7.423 91.7677 9.261 95.6797 7.08 98.5247 3.492 89.9207 5.68434189e-14 87.2407 1.95 84.7007 5.441 87.3807 14.679 88.6197"></polygon>
            </g>
            <g id="CIVILITY" transform="translate(666.013520, 189.963024)" fill="#DCDCDC">
                <path d="M11.8103796,2.700376 C14.3223796,6.078376 13.2423796,9.214376 11.2913796,10.964376 L9.31537963,8.304376 C10.3533796,7.233376 10.4043796,5.880376 9.46837963,4.621376 C8.22737963,2.951376 6.40337963,2.751376 4.68237963,4.030376 C2.96037963,5.310376 2.62637963,7.114376 3.86837963,8.783376 C4.80337963,10.042376 6.11537963,10.384376 7.45337963,9.689376 L9.42837963,12.348376 C7.17937963,13.721376 3.87437963,13.864376 1.35337963,10.472376 C-0.785620371,7.596376 -0.428620371,3.700376 2.70637963,1.371376 C5.83937963,-0.958624 9.66237963,-0.190624 11.8103796,2.700376" id="Fill-69"></path>
                <polygon id="Fill-71" points="8.77027963 20.381076 6.94527963 17.752076 17.1992796 10.637076 19.0232796 13.266076"></polygon>
                <polygon id="Fill-73" points="17.2204796 25.406476 19.7674796 24.687476 25.5754796 23.145476 27.4764796 26.070476 14.5364796 29.057476 12.7414796 26.294476 20.7304796 15.686476 22.6824796 18.691476 18.9214796 23.385476"></polygon>
                <polygon id="Fill-75" points="19.9587796 37.801476 18.3017796 35.064476 28.9737796 28.601476 30.6307796 31.338476"></polygon>
                <polygon id="Fill-77" points="25.9040796 42.025576 28.6380796 46.823576 26.0370796 48.305576 21.7180796 40.725576 32.5670796 34.545576 34.1510796 37.326576"></polygon>
                <polygon id="Fill-79" points="28.8659796 53.596876 27.3559796 50.775876 38.3599796 44.888876 39.8699796 47.710876"></polygon>
                <polygon id="Fill-81" points="33.2399796 62.165276 31.8109796 59.300276 40.3049796 55.064276 38.6979796 51.842276 41.3769796 50.506276 46.0189796 59.816276 43.3409796 61.152276 41.7329796 57.930276"></polygon>
                <polygon id="Fill-83" points="48.5544796 65.304876 45.8684796 68.689876 44.9584796 69.783876 46.3814796 69.826876 50.6974796 70.058876 52.1674796 73.325876 42.8984796 72.413876 38.8874796 74.220876 37.5734796 71.304876 41.5834796 69.497876 47.0434796 61.950876"></polygon>
            </g>
            <g id="DETERMINATION" transform="translate(313.596100, 52.483000)">
                <path d="M7.342,19.2156 C9.489,18.7056 10.147,16.9716 9.752,15.3066 C9.357,13.6416 7.99,12.3876 5.843,12.8966 L3.804,13.3806 L5.303,19.6996 L7.342,19.2156 Z M8.344,22.0526 L2.881,23.3486 L0,11.2086 L5.463,9.9126 C9.323,8.9966 12.148,11.2696 12.927,14.5536 C13.706,17.8376 12.203,21.1366 8.344,22.0526 L8.344,22.0526 Z" id="Fill-85" fill="#000000"></path>
                <polygon id="Fill-87" fill="#000000" points="23.9084 6.0349 24.4794 8.9709 18.4344 10.1459 18.7484 11.7629 24.1654 10.7099 24.7154 13.5359 19.2984 14.5889 19.6734 16.5199 26.0324 15.2849 26.6024 18.2209 17.1034 20.0669 14.7234 7.8199"></polygon>
                <polygon id="Fill-89" fill="#000000" points="35.6301 16.7678 32.4691 17.2598 31.0121 7.8848 27.4551 8.4378 26.9951 5.4818 37.2711 3.8848 37.7311 6.8408 34.1731 7.3928"></polygon>
                <polygon id="Fill-91" fill="#000000" points="49.6877 2.3674 50.0387 5.3374 43.9227 6.0604 44.1167 7.6964 49.5967 7.0484 49.9347 9.9084 44.4547 10.5554 44.6847 12.5094 51.1187 11.7494 51.4687 14.7194 41.8597 15.8554 40.3957 3.4654"></polygon>
                <path d="M56.8215,4.6843 L57.0005,6.9333 L59.1525,6.7623 C59.9975,6.6953 60.2545,6.0803 60.2125,5.5543 C60.1675,4.9963 59.8185,4.4463 58.9735,4.5133 L56.8215,4.6843 Z M61.3845,9.2163 L64.4805,13.6393 L60.7815,13.9333 L58.1745,9.7913 L57.2325,9.8673 L57.5765,14.1883 L54.3865,14.4413 L53.3995,2.0033 L59.1875,1.5443 C61.7385,1.3413 63.2775,3.1443 63.4485,5.2973 C63.5785,6.9233 62.8815,8.4553 61.3845,9.2163 L61.3845,9.2163 Z" id="Fill-93" fill="#000000"></path>
                <g id="Group-97" transform="translate(66.403900, 0.000000)">
                    <mask id="mask-2" fill="white">
                        <use xlink:href="#path-1"></use>
                    </mask>
                    <g id="Clip-96"></g>
                    <polygon id="Fill-95" fill="#000000" mask="url(#mask-2)" points="4.2213 8.5159 3.5733 6.4739 3.7173 9.1899 3.8643 13.3479 0.7613 13.4569 0.3213 0.9839 4.5903 0.8339 6.1803 5.5009 7.2203 8.6499 8.0353 5.4349 9.2923 0.6679 13.5623 0.5169 14.0023 12.9899 10.8353 13.1019 10.6893 8.9439 10.6413 6.2239 10.1383 8.3069 8.8683 13.1709 5.8303 13.2779"></polygon>
                </g>
                <polygon id="Fill-98" fill="#000000" points="87.0042 13.0056 83.8032 13.0086 83.7912 0.5236 86.9922 0.5206"></polygon>
                <polygon id="Fill-100" fill="#000000" points="98.7991 7.5496 98.8091 5.1166 98.9421 0.7676 102.0441 0.8626 101.6631 13.3356 98.8171 13.2486 93.6191 6.2876 93.6251 8.7206 93.4911 13.0856 90.3731 12.9906 90.7541 0.5176 93.6161 0.6056"></polygon>
                <path d="M109.5354,9.0505 L111.6894,9.2085 L111.4544,8.2605 L110.8744,5.6825 L109.9064,8.1465 L109.5354,9.0505 Z M112.4324,12.1995 L108.3624,11.9005 L107.6194,13.7075 L104.1394,13.4505 L109.5904,1.3355 L112.8774,1.5775 L116.4944,14.3605 L112.9194,14.0975 L112.4324,12.1995 Z" id="Fill-102" fill="#000000"></path>
                <polygon id="Fill-104" fill="#000000" points="124.0149 15.1824 120.8349 14.8344 121.8669 5.4064 118.2889 5.0144 118.6149 2.0414 128.9499 3.1714 128.6229 6.1454 125.0459 5.7534"></polygon>
                <polygon id="Fill-106" fill="#000000" points="133.5364 16.4124 130.3664 15.9734 132.0804 3.6074 135.2504 4.0464"></polygon>
                <path d="M140.8088,11.2043 C140.4488,13.2853 141.5058,14.8643 143.4918,15.2083 C145.4778,15.5523 147.0048,14.4213 147.3658,12.3403 C147.7258,10.2603 146.6678,8.6803 144.6828,8.3363 C142.6968,7.9923 141.1688,9.1233 140.8088,11.2043 M150.6278,12.9063 C149.9758,16.6733 146.8058,18.8513 142.9758,18.1873 C139.1448,17.5243 136.8928,14.4063 137.5458,10.6393 C138.1988,6.8713 141.3688,4.6933 145.1988,5.3573 C149.0288,6.0203 151.2818,9.1383 150.6278,12.9063" id="Fill-108" fill="#000000"></path>
                <polygon id="Fill-110" fill="#000000" points="161.6262 15.8259 162.0852 13.4369 163.0192 9.1869 166.0502 9.8529 163.3722 22.0409 160.5912 21.4299 156.7692 13.6289 156.3252 16.0209 155.3882 20.2859 152.3412 19.6169 155.0192 7.4299 157.8152 8.0439"></polygon>
            </g>
        </g>
    </g>
</svg>