<svg xmlns="http://www.w3.org/2000/svg" viewBox="0 0 36.39 29.94"><defs><style>.cls-1{fill:#fff;}</style></defs><title>Asset 2</title><g id="Layer_2" data-name="Layer 2"><g id="DESIGN"><path class="cls-1" d="M3.83,1a2,2,0,0,1-.67,2.84,2,2,0,0,1-1.06.33,2,2,0,0,1-1.78-1A2,2,0,0,1,1,.32,2,2,0,0,1,3.83,1Z"/><path class="cls-1" d="M9.23,9.56a2.08,2.08,0,0,1-.67,2.9,2,2,0,0,1-1.11.28,2.15,2.15,0,0,1-1.78-1A2.13,2.13,0,0,1,6.34,8.9,2.07,2.07,0,0,1,9.23,9.56Z"/><path class="cls-1" d="M14.58,18.19A2.06,2.06,0,0,1,14,21a2.24,2.24,0,0,1-1.11.34,2.07,2.07,0,1,1,1.73-3.18Z"/><path class="cls-1" d="M16.75,26.38a2,2,0,0,1,1.45-.61,2.08,2.08,0,0,1,2.11,2.11,2,2,0,0,1-.61,1.45,2.15,2.15,0,0,1-1.5.61,2.08,2.08,0,0,1-2.06-2.06A2.15,2.15,0,0,1,16.75,26.38Z"/><path class="cls-1" d="M24.71,17.53a2.06,2.06,0,0,1,.61,2.84,2,2,0,0,1-2.84.66,2,2,0,0,1-.67-2.84A2.08,2.08,0,0,1,24.71,17.53Z"/><path class="cls-1" d="M30.05,8.9a2.07,2.07,0,0,1-1.11,3.84,2,2,0,0,1-1.11-.28,2.14,2.14,0,0,1-.67-2.9A2.07,2.07,0,0,1,30.05,8.9Z"/><path class="cls-1" d="M35.45.32a2.07,2.07,0,0,1,.62,2.84,2,2,0,0,1-1.73,1,2,2,0,0,1-1.11-.33A2,2,0,0,1,32.56,1,2.08,2.08,0,0,1,35.45.32Z"/></g></g></svg>