<svg xmlns="http://www.w3.org/2000/svg" viewBox="0 0 574.69 574.69"><defs><style>.cls-1{fill:none;}.cls-2{fill:#fff;}</style></defs><title>Asset 10</title><g id="Layer_2" data-name="Layer 2"><g id="DESIGN"><path class="cls-1" d="M291.63,574.65c158.68-2.37,285.39-132.92,283-291.6S441.73-2.34,283.05,0-2.34,133,0,291.63,133,577,291.63,574.65"/><path class="cls-2" d="M459.44,127.73a18.33,18.33,0,1,0-.88,25.9,18.35,18.35,0,0,0,.88-25.9m-36,33.64a30.94,30.94,0,1,1,43.73,1.48,31,31,0,0,1-43.73-1.48"/><path class="cls-2" d="M264.77,511.75a30.93,30.93,0,1,0,28.71-40.56c-8.51.18-15,3.78-19.28,9.45l-.17-8-11.46.25.67,31.49,27.67-.59-.24-11.55-13.22.28a21,21,0,0,1,16.3-8.73,18.32,18.32,0,1,1-15.34,27.65Z"/><path class="cls-2" d="M156.62,482.35A18.32,18.32,0,1,0,151.37,457a18.34,18.34,0,0,0,5.25,25.38m27-41.18A30.95,30.95,0,1,1,140.82,450a31,31,0,0,1,42.85-8.87"/><path class="cls-2" d="M118.52,364.6l-19,7.71-4.65-11.42c-4.27-10.5-15.11-13.38-24.42-9.59s-15,13.42-10.78,23.91l9.4,23.1,54.16-22ZM75.37,382.16l-3.93-9.65c-1.75-4.31.28-7.8,3.92-9.28s7.53-.4,9.28,3.91l3.93,9.65Z"/><path class="cls-2" d="M142.28,401.11c-8.86-11.05-22.51-13.33-34.35-3.84l-27.44,22,7.89,9.83,28.15-22.57c5.78-4.63,12.56-3,16.56,2s4,11.88-1.76,16.51l-28.15,22.57,7.94,9.91,27.44-22c11.84-9.48,12.52-23.38,3.72-34.36"/><path class="cls-2" d="M241.27,467.13l-6.09,20.49L229.75,486l-6.25-24.16-14.27-4.25,6.68,25.25c-8,.17-14.23,5.87-16.49,13.48-2.82,9.46.92,19.63,11.87,22.89l25.39,7.55,16.68-56ZM228,511.78l-11.56-3.44c-4.38-1.3-5.6-4.9-4.58-8.32s4-5.76,8.38-4.46L231.79,499Z"/><polygon class="cls-2" points="353.41 462.56 367.51 521.47 378.74 515.34 371.64 486.86 369.22 477.25 376.64 484.76 397.51 505.12 409.7 498.47 403.91 469.89 401.79 459.5 408.38 466.83 428.64 488.15 439.95 481.99 398.09 438.21 386.62 444.46 392.51 474.55 394.85 485.34 386.89 477.61 364.8 456.35 353.41 462.56"/><path class="cls-2" d="M441.75,392.51,432.61,403l5.59,9.85-13.41,15.34L414.28,424l-9.44,10.8,58.39,22,8.24-9.43Zm0,42.48-5.26-2.18,7.93-9.08,2.8,5,7.06,11.63Z"/><polygon class="cls-2" points="509.54 388.34 515.12 377.04 462.69 351.16 445.1 386.8 455.75 392.06 467.76 367.73 509.54 388.34"/><polygon class="cls-2" points="532.37 277.02 474.02 273.38 471.26 317.6 483.11 318.34 485.08 286.7 497.3 287.46 495.61 314.63 507.28 315.36 508.97 288.19 519.73 288.86 517.85 319.04 529.7 319.78 532.37 277.02"/><polygon class="cls-2" points="497.35 236.45 522.12 220.37 518.75 206.52 467.08 241.47 470.04 253.63 532.01 261.02 528.71 247.44 499.32 244.53 485.63 243.54 497.35 236.45"/><polygon class="cls-2" points="503.31 173.89 497.56 162.67 445.53 189.35 463.67 224.72 474.24 219.3 461.85 195.15 503.31 173.89"/><polygon class="cls-2" points="395.55 100.29 400.9 71.25 388.53 64.17 378.37 125.72 389.23 131.94 437.22 92.03 425.08 85.08 402.76 104.42 392.63 113.67 395.55 100.29"/><polygon class="cls-2" points="334.69 47.45 319.37 103.87 362.13 115.49 365.24 104.02 334.65 95.71 337.86 83.9 364.13 91.04 367.19 79.75 340.92 72.62 343.75 62.21 372.93 70.14 376.04 58.68 334.69 47.45"/><path class="cls-2" d="M298.57,79.63c7.68-2.44,12-9.65,12-17.6,0-9.86-6.44-18.56-17.86-18.59l-26.49-.07-.15,58.47,12.6,0,.06-21.37h5.66l12.83,21.41,14.89,0Zm-7.74-11-12.06,0,0-13.34,12.05,0c4.57,0,6.76,3.13,6.75,6.69S295.4,68.66,290.83,68.65Z"/></g></g></svg>