<?xml version="1.0" encoding="UTF-8"?>
<svg width="252px" height="252px" viewBox="0 0 252 252" version="1.1" xmlns="http://www.w3.org/2000/svg" xmlns:xlink="http://www.w3.org/1999/xlink">
    <!-- Generator: Sketch 57.1 (83088) - https://sketch.com -->
    <title>Asset 6</title>
    <desc>Created with Sketch.</desc>
    <g id="Page-1" stroke="none" stroke-width="1" fill="none" fill-rule="evenodd">
        <g id="Asset-6" transform="translate(-3.000000, -3.000000)">
            <circle id="Oval" stroke="#FFFFFF" cx="129.17" cy="129.25" r="125"></circle>
            <g id="TEXT" transform="translate(0.241255, 0.389514)" fill="#000000" font-family="Cosmica-Extrabold, Cosmica" font-size="18" font-weight="600">
                <text id="A" transform="translate(13.008745, 122.800486) rotate(-87.137595) translate(-13.008745, -122.800486) ">
                    <tspan x="6" y="129.785496">A</tspan>
                </text>
                <text id="P" transform="translate(14.938745, 107.050486) rotate(-79.592289) translate(-14.938745, -107.050486) ">
                    <tspan x="8.46218681" y="114.093764">P</tspan>
                </text>
                <text id="P" transform="translate(18.468745, 93.305486) rotate(-72.474432) translate(-18.468745, -93.305486) ">
                    <tspan x="11.9931654" y="100.350571">P</tspan>
                </text>
                <text id="E" transform="translate(23.634572, 80.086303) rotate(-65.240000) translate(-23.634572, -80.086303) ">
                    <tspan x="17.1345724" y="87.086303">E</tspan>
                </text>
                <text id="A" transform="translate(30.975982, 66.647898) rotate(-57.560000) translate(-30.975982, -66.647898) ">
                    <tspan x="23.9759819" y="73.6478979">A</tspan>
                </text>
                <text id="L" transform="translate(40.048745, 54.230486) rotate(-50.267697) translate(-40.048745, -54.230486) ">
                    <tspan x="34.0412492" y="61.2154956">L</tspan>
                </text>
                <text id="S" transform="translate(49.445196, 44.288561) rotate(-43.500000) translate(-49.445196, -44.288561) ">
                    <tspan x="42.9451959" y="51.2885609">S</tspan>
                </text>
                <text id="A" transform="translate(65.528745, 31.570486) rotate(-33.215251) translate(-65.528745, -31.570486) ">
                    <tspan x="58.5004517" y="38.5219843">A</tspan>
                </text>
                <text id="N" transform="translate(80.393745, 23.390486) rotate(-24.775141) translate(-80.393745, -23.390486) ">
                    <tspan x="72.8768885" y="30.3635165">N</tspan>
                </text>
                <text id="D" transform="translate(96.868745, 17.320486) rotate(-16.260205) translate(-96.868745, -17.320486) ">
                    <tspan x="88.8687445" y="24.3204862">D</tspan>
                </text>
                <text id="W" transform="translate(121.721743, 13.000000) rotate(-3.800000) translate(-121.721743, -13.000000) ">
                    <tspan x="111.221743" y="20">W</tspan>
                </text>
                <text id="R" transform="translate(140.451908, 13.329432) rotate(5.610000) translate(-140.451908, -13.329432) ">
                    <tspan x="133.951908" y="20.3294316">R</tspan>
                </text>
                <text id="I" transform="translate(151.788745, 15.040486) rotate(11.534621) translate(-151.788745, -15.040486) ">
                    <tspan x="148.788145" y="22.0380865">I</tspan>
                </text>
                <text id="T" transform="translate(162.882948, 17.842355) rotate(16.900000) translate(-162.882948, -17.842355) ">
                    <tspan x="156.382948" y="24.8423554">T</tspan>
                </text>
                <text id="S" transform="translate(176.183437, 22.824938) rotate(23.840000) translate(-176.183437, -22.824938) ">
                    <tspan x="169.683437" y="29.824938">S</tspan>
                </text>
            </g>
            <g id="ICON" transform="translate(116.809865, 61.243760)" fill="#000000" fill-rule="nonzero">
                <path d="M24.8901346,29.9162403 L15.6901346,29.9162403 L15.6901346,24.4562403 C16.683575,24.1863264 17.6405753,23.7968104 18.5401346,23.2962403 C18.8360458,23.1350332 19.1231225,22.9581138 19.4001346,22.7662403 C21.7484229,21.1843647 23.4873743,18.8493022 24.3301346,16.1462403 C24.5743039,15.354139 24.7417411,14.5403942 24.8301346,13.7162403 C24.8301346,13.3062403 24.8901346,12.8762403 24.8901346,12.4462403 C24.8883604,11.6034479 24.804633,10.7628252 24.6401346,9.93624031 C24.3909869,8.74180752 23.9699386,7.58981919 23.3901346,6.51624031 C23.0107225,5.80689102 22.5618566,5.136942 22.0501346,4.51624031 C18.2561667,-0.0748410534 11.7404022,-1.33271065 6.51013461,1.51624031 C5.1041448,2.26925471 3.85774584,3.28810945 2.84013461,4.51624031 C2.32841261,5.136942 1.87954676,5.80689102 1.50013461,6.51624031 C0.509178947,8.3352225 -0.00674803522,10.3748538 6.66424486e-05,12.4462403 C6.66424486e-05,12.8762403 6.66424486e-05,13.3062403 0.0601346122,13.7162403 C0.138841664,14.5418774 0.30648019,15.3566006 0.560134612,16.1462403 C1.40087554,18.8448881 3.13628164,21.1763991 5.48013461,22.7562403 C5.76056013,22.9481645 6.05096806,23.1250797 6.35013461,23.2862403 C7.24571957,23.7902395 8.19942595,24.1831397 9.19013461,24.4562403 L9.19013461,29.9162403 L6.66424486e-05,29.9162403 L6.66424486e-05,117.91624 C0.00717582723,123.530867 3.77140035,128.446068 9.19013461,129.91624 L9.19013461,135.96624 L15.6901346,135.96624 L15.6901346,129.95624 C21.1148646,128.492866 24.8853185,123.574882 24.8901346,117.95624 L24.8901346,36.4162403 C25.1383292,36.4187547 25.3858709,36.4421708 25.6301346,36.4862403 C27.7210858,36.8454865 29.2519321,38.6546684 29.2601346,40.7762403 L29.2601346,76.4662403 L35.7601346,76.4662403 L35.7601346,40.7562403 C35.7381174,34.7669092 30.8795037,29.9217048 24.8901346,29.9162403 Z M6.50013461,12.4462403 C6.52770931,9.16549618 9.20572867,6.52617834 12.4865266,6.54624596 C15.7673245,6.56654356 18.4126697,9.23860934 18.3999254,12.5194444 C18.3870888,15.8002795 15.7209902,18.4516385 12.4401346,18.4462485 C10.8551291,18.4436324 9.33667392,17.8087262 8.22155036,16.6823387 C7.1064268,15.5559513 6.48681307,14.031192 6.50013461,12.4462403 L6.50013461,12.4462403 Z M18.3901346,117.94624 C18.4796486,120.128345 17.3665227,122.184115 15.490275,123.301829 C13.6140273,124.419544 11.276242,124.419544 9.39999425,123.301829 C7.52374654,122.184115 6.41062064,120.128345 6.50013461,117.94624 L6.50013461,82.9462403 L18.3901346,82.9462403 L18.3901346,117.94624 Z M18.3901346,76.4662403 L6.50013461,76.4662403 L6.50013461,36.4162403 L18.3901346,36.4162403 L18.3901346,76.4662403 Z" id="Shape"></path>
            </g>
        </g>
    </g>
</svg>