<?xml version="1.0" encoding="UTF-8"?>
<svg width="199px" height="14px" viewBox="0 0 199 14" version="1.1" xmlns="http://www.w3.org/2000/svg" xmlns:xlink="http://www.w3.org/1999/xlink">
    <!-- Generator: Sketch 57 (83077) - https://sketch.com -->
    <title>logo</title>
    <desc>Created with Sketch.</desc>
    <defs>
        <path d="M2.52,8.44 L2.52,13.24 L0.28,13.24 L0.28,0.76 L5.752,0.76 C7.992,0.76 9.528,2.376 9.528,4.6 C9.528,6.424 8.504,7.832 6.92,8.28 L9.928,13.24 L7.288,13.24 L4.408,8.44 L2.52,8.44 Z M2.52,6.36 L5.496,6.36 C6.52,6.36 7.256,5.688 7.256,4.6 C7.256,3.512 6.52,2.84 5.496,2.84 L2.52,2.84 L2.52,6.36 Z M11.704,0.76 L20.664,0.76 L20.664,2.84 L13.944,2.84 L13.944,5.8 L20.024,5.8 L20.024,7.88 L13.944,7.88 L13.944,11.16 L20.984,11.16 L20.984,13.24 L11.704,13.24 L11.704,0.76 Z" id="path-1"></path>
        <polygon id="path-2" points="28.17 7.192 29.162 10.184 30.154 7.192 32.458 0.76 34.906 0.76 30.234 13.24 28.026 13.24 23.354 0.76 25.866 0.76"></polygon>
        <path d="M42.902,11.384 C45.366,11.384 47.142,9.768 47.142,7 C47.142,4.232 45.366,2.616 42.902,2.616 C40.438,2.616 38.662,4.232 38.662,7 C38.662,9.768 40.438,11.384 42.902,11.384 Z M42.902,13.464 C39.174,13.464 36.39,10.984 36.39,7 C36.39,3.016 39.174,0.536 42.902,0.536 C46.63,0.536 49.414,3.016 49.414,7 C49.414,10.984 46.63,13.464 42.902,13.464 Z" id="path-3"></path>
        <polygon id="path-4" points="54.12 0.76 54.12 11.16 60.2 11.16 60.2 13.24 51.88 13.24 51.88 0.76"></polygon>
        <path d="M65.05,7.192 L66.042,10.184 L67.034,7.192 L69.338,0.76 L71.786,0.76 L67.114,13.24 L64.906,13.24 L60.234,0.76 L62.746,0.76 L65.05,7.192 Z M73.37,0.76 L82.33,0.76 L82.33,2.84 L75.61,2.84 L75.61,5.8 L81.69,5.8 L81.69,7.88 L75.61,7.88 L75.61,11.16 L82.65,11.16 L82.65,13.24 L73.37,13.24 L73.37,0.76 Z M90.65,0.76 L90.65,11.16 L96.73,11.16 L96.73,13.24 L88.41,13.24 L88.41,0.76 L90.65,0.76 Z" id="path-5"></path>
        <path d="M109.254,13.24 L108.262,10.504 L103.638,10.504 L102.662,13.24 L100.214,13.24 L104.886,0.76 L107.094,0.76 L111.766,13.24 L109.254,13.24 Z M106.95,6.808 L105.958,3.816 L104.966,6.808 L104.39,8.424 L107.526,8.424 L106.95,6.808 Z" id="path-6"></path>
        <path d="M126.68,13.24 L124.424,13.24 L122.184,6.504 L121.4,4.024 L120.616,6.504 L118.376,13.24 L116.12,13.24 L112.648,0.76 L114.936,0.76 L116.728,7.272 L117.336,9.608 L118.104,7.176 L120.2,0.76 L122.632,0.76 L124.728,7.176 L125.496,9.608 L126.104,7.272 L127.896,0.76 L130.152,0.76 L126.68,13.24 Z M147.256,6.904 L147.256,13.24 L145.24,13.24 L145.24,11.288 C144.44,12.472 143.08,13.464 141,13.464 C137.976,13.464 135.08,10.936 135.08,7 C135.08,3.064 137.8,0.536 141.432,0.536 C145.08,0.536 146.936,2.808 147.24,5.048 L144.84,5.048 C144.568,3.688 143.528,2.616 141.528,2.616 C139.064,2.616 137.352,4.328 137.352,7 C137.352,9.672 139.176,11.384 141.288,11.384 C143.384,11.384 144.44,10.232 144.68,8.92 L141.592,8.92 L141.592,6.904 L147.256,6.904 Z" id="path-7"></path>
        <path d="M153.16,8.44 L153.16,13.24 L150.92,13.24 L150.92,0.76 L156.392,0.76 C158.632,0.76 160.168,2.376 160.168,4.6 C160.168,6.424 159.144,7.832 157.56,8.28 L160.568,13.24 L157.928,13.24 L155.048,8.44 L153.16,8.44 Z M153.16,6.36 L156.136,6.36 C157.16,6.36 157.896,5.688 157.896,4.6 C157.896,3.512 157.16,2.84 156.136,2.84 L153.16,2.84 L153.16,6.36 Z" id="path-8"></path>
        <path d="M168.692,11.384 C171.156,11.384 172.932,9.768 172.932,7 C172.932,4.232 171.156,2.616 168.692,2.616 C166.228,2.616 164.452,4.232 164.452,7 C164.452,9.768 166.228,11.384 168.692,11.384 Z M168.692,13.464 C164.964,13.464 162.18,10.984 162.18,7 C162.18,3.016 164.964,0.536 168.692,0.536 C172.42,0.536 175.204,3.016 175.204,7 C175.204,10.984 172.42,13.464 168.692,13.464 Z M182.276,13.464 C179.188,13.464 177.124,11.4 177.124,8.312 L177.124,0.76 L179.364,0.76 L179.364,8.472 C179.364,10.2 180.548,11.384 182.276,11.384 C184.004,11.384 185.188,10.2 185.188,8.472 L185.188,0.76 L187.428,0.76 L187.428,8.312 C187.428,11.4 185.364,13.464 182.276,13.464 Z M192.068,6.552 L194.692,6.552 C195.78,6.552 196.548,5.848 196.548,4.696 C196.548,3.544 195.78,2.84 194.692,2.84 L192.068,2.84 L192.068,6.552 Z M192.068,8.632 L192.068,13.24 L189.828,13.24 L189.828,0.76 L194.948,0.76 C197.252,0.76 198.82,2.424 198.82,4.696 C198.82,6.968 197.252,8.632 194.948,8.632 L192.068,8.632 Z" id="path-9"></path>
    </defs>
    <g id="Page-1" stroke="none" stroke-width="1" fill="none" fill-rule="evenodd">
        <g id="logo" fill-rule="nonzero">
            <g id="RE">
                <use fill="#000000" xlink:href="#path-1"></use>
                <use fill="#FFFFFF" xlink:href="#path-1"></use>
            </g>
            <g id="V">
                <use fill="#000000" xlink:href="#path-2"></use>
                <use fill="#FFFFFF" xlink:href="#path-2"></use>
            </g>
            <g id="O">
                <use fill="#000000" xlink:href="#path-3"></use>
                <use fill="#FFFFFF" xlink:href="#path-3"></use>
            </g>
            <g id="L">
                <use fill="#000000" xlink:href="#path-4"></use>
                <use fill="#FFFFFF" xlink:href="#path-4"></use>
            </g>
            <g id="VEL">
                <use fill="#000000" xlink:href="#path-5"></use>
                <use fill="#FFFFFF" xlink:href="#path-5"></use>
            </g>
            <g id="A">
                <use fill="#000000" xlink:href="#path-6"></use>
                <use fill="#FFFFFF" xlink:href="#path-6"></use>
            </g>
            <g id="WG">
                <use fill="#000000" xlink:href="#path-7"></use>
                <use fill="#FFFFFF" xlink:href="#path-7"></use>
            </g>
            <g id="R">
                <use fill="#000000" xlink:href="#path-8"></use>
                <use fill="#FFFFFF" xlink:href="#path-8"></use>
            </g>
            <g id="OUP">
                <use fill="#000000" xlink:href="#path-9"></use>
                <use fill="#FFFFFF" xlink:href="#path-9"></use>
            </g>
        </g>
    </g>
</svg>